<svg id="_002" data-name="002"
    xmlns="http://www.w3.org/2000/svg" viewBox="0 0 128 128" width="128" height="128">
    <defs>
        <style>.cls-1{opacity:0.3;}.cls-2{fill:#c9c1f5;}.cls-3{fill:#f2eed5;}.cls-4{fill:#6d6daa;}.cls-5{fill:#fffad1;}.cls-6{fill:#e0f3ff;}.cls-7{fill:#ff968c;}.cls-8{fill:#fff2cc;}.cls-9{opacity:0.5;}.cls-10{fill:#ced8ee;}.cls-11{fill:#7690a8;}.cls-12{fill:#fff;}.cls-13{fill:#d4edff;}.cls-14{fill:#939fc6;}.cls-15{fill:#d6b5b0;}</style>
    </defs>
    <title>008</title>
    <g class="cls-1">
        <path class="cls-2" d="M114.25,59.17A45.95,45.95,0,1,0,24,46.82a50.29,50.29,0,0,1-5.85,23.53A27,27,0,0,0,43.08,110a27.47,27.47,0,0,0,4.36-.53c10.76-2.2,22.06-1.18,31.83,3.83a24.53,24.53,0,0,0,34.24-13.41,24.48,24.48,0,0,0,.55-15.1A47.49,47.49,0,0,1,114.25,59.17Z"/>
        <rect class="cls-3" x="84" y="39" width="6" height="21"/>
        <path class="cls-4" d="M90,61H84a1,1,0,0,1-1-1V39a1,1,0,0,1,1-1h6a1,1,0,0,1,1,1V60A1,1,0,0,1,90,61Zm-5-2h4V40H85Z"/>
        <rect class="cls-5" x="74" y="60.01" width="50" height="6"/>
        <path class="cls-4" d="M124,67H74a1,1,0,0,1-1-1V60a1,1,0,0,1,1-1h50a1,1,0,0,1,1,1v6A1,1,0,0,1,124,67ZM75,65h48V61H75Z"/>
        <rect class="cls-6" x="102" y="39.01" width="6" height="21"/>
        <path class="cls-4" d="M108,61h-6a1,1,0,0,1-1-1V39a1,1,0,0,1,1-1h6a1,1,0,0,1,1,1V60A1,1,0,0,1,108,61Zm-5-2h4V40h-4Z"/>
        <rect class="cls-7" x="108" y="39.01" width="6" height="21"/>
        <path class="cls-4" d="M114,61h-6a1,1,0,0,1-1-1V39a1,1,0,0,1,1-1h6a1,1,0,0,1,1,1V60A1,1,0,0,1,114,61Zm-5-2h4V40h-4Z"/>
        <rect class="cls-6" x="96" y="39" width="6" height="21"/>
        <path class="cls-4" d="M102,61H96a1,1,0,0,1-1-1V39a1,1,0,0,1,1-1h6a1,1,0,0,1,1,1V60A1,1,0,0,1,102,61Zm-5-2h4V40H97Z"/>
        <rect class="cls-7" x="90" y="39" width="6" height="21"/>
        <path class="cls-4" d="M96,61H90a1,1,0,0,1-1-1V39a1,1,0,0,1,1-1h6a1,1,0,0,1,1,1V60A1,1,0,0,1,96,61Zm-5-2h4V40H91Z"/>
        <rect class="cls-8" x="114" y="39.01" width="6" height="21"/>
        <path class="cls-4" d="M120,61h-6a1,1,0,0,1-1-1V39a1,1,0,0,1,1-1h6a1,1,0,0,1,1,1V60A1,1,0,0,1,120,61Zm-5-2h4V40h-4Z"/>
        <rect class="cls-3" x="7" y="39.01" width="6" height="21"/>
        <path class="cls-4" d="M13,61H7a1,1,0,0,1-1-1V39a1,1,0,0,1,1-1h6a1,1,0,0,1,1,1V60A1,1,0,0,1,13,61ZM8,59h4V40H8Z"/>
        <rect class="cls-5" x="3" y="60.01" width="48" height="6"/>
        <path class="cls-4" d="M51,67H3a1,1,0,0,1-1-1V60a1,1,0,0,1,1-1H51a1,1,0,0,1,1,1v6A1,1,0,0,1,51,67ZM4,65H50V61H4Z"/>
        <rect class="cls-5" x="74" y="91" width="50" height="6"/>
        <path class="cls-4" d="M124,98H74a1,1,0,0,1-1-1V91a1,1,0,0,1,1-1h50a1,1,0,0,1,1,1v6A1,1,0,0,1,124,98ZM75,96h48V92H75Z"/>
        <rect class="cls-5" x="3" y="91" width="50" height="6"/>
        <path class="cls-4" d="M53,98H3a1,1,0,0,1-1-1V91a1,1,0,0,1,1-1H53a1,1,0,0,1,1,1v6A1,1,0,0,1,53,98ZM4,96H52V92H4Z"/>
        <rect class="cls-6" x="25" y="39.01" width="6" height="21"/>
        <path class="cls-4" d="M31,61H25a1,1,0,0,1-1-1V39a1,1,0,0,1,1-1h6a1,1,0,0,1,1,1V60A1,1,0,0,1,31,61Zm-5-2h4V40H26Z"/>
        <rect class="cls-7" x="31" y="39.01" width="6" height="21"/>
        <path class="cls-4" d="M37,61H31a1,1,0,0,1-1-1V39a1,1,0,0,1,1-1h6a1,1,0,0,1,1,1V60A1,1,0,0,1,37,61Zm-5-2h4V40H32Z"/>
        <rect class="cls-6" x="13" y="39.01" width="6" height="21"/>
        <path class="cls-4" d="M19,61H13a1,1,0,0,1-1-1V39a1,1,0,0,1,1-1h6a1,1,0,0,1,1,1V60A1,1,0,0,1,19,61Zm-5-2h4V40H14Z"/>
        <rect class="cls-8" x="37" y="39.01" width="6" height="21"/>
        <path class="cls-4" d="M43,61H37a1,1,0,0,1-1-1V39a1,1,0,0,1,1-1h6a1,1,0,0,1,1,1V60A1,1,0,0,1,43,61Zm-5-2h4V40H38Z"/>
        <rect class="cls-3" x="87" y="8" width="6" height="21"/>
        <path class="cls-4" d="M93,30H87a1,1,0,0,1-1-1V8a1,1,0,0,1,1-1h6a1,1,0,0,1,1,1V29A1,1,0,0,1,93,30Zm-5-2h4V9H88Z"/>
        <rect class="cls-6" x="99" y="8" width="6" height="21"/>
        <path class="cls-4" d="M105,30H99a1,1,0,0,1-1-1V8a1,1,0,0,1,1-1h6a1,1,0,0,1,1,1V29A1,1,0,0,1,105,30Zm-5-2h4V9h-4Z"/>
        <rect class="cls-6" x="73" y="8" width="6" height="21"/>
        <path class="cls-4" d="M79,30H73a1,1,0,0,1-1-1V8a1,1,0,0,1,1-1h6a1,1,0,0,1,1,1V29A1,1,0,0,1,79,30Zm-5-2h4V9H74Z"/>
        <rect class="cls-7" x="93" y="8" width="6" height="21"/>
        <path class="cls-4" d="M99,30H93a1,1,0,0,1-1-1V8a1,1,0,0,1,1-1h6a1,1,0,0,1,1,1V29A1,1,0,0,1,99,30Zm-5-2h4V9H94Z"/>
        <rect class="cls-7" x="61" y="8" width="6" height="21"/>
        <path class="cls-4" d="M67,30H61a1,1,0,0,1-1-1V8a1,1,0,0,1,1-1h6a1,1,0,0,1,1,1V29A1,1,0,0,1,67,30Zm-5-2h4V9H62Z"/>
        <rect class="cls-7" x="67" y="8" width="6" height="21"/>
        <path class="cls-4" d="M73,30H67a1,1,0,0,1-1-1V8a1,1,0,0,1,1-1h6a1,1,0,0,1,1,1V29A1,1,0,0,1,73,30Zm-5-2h4V9H68Z"/>
        <rect class="cls-3" x="46" y="8" width="6" height="21" transform="translate(98 37) rotate(180)"/>
        <path class="cls-4" d="M52,30H46a1,1,0,0,1-1-1V8a1,1,0,0,1,1-1h6a1,1,0,0,1,1,1V29A1,1,0,0,1,52,30Zm-5-2h4V9H47Z"/>
        <rect class="cls-5" x="3" y="29" width="121" height="6"/>
        <path class="cls-4" d="M124,36H3a1,1,0,0,1-1-1V29a1,1,0,0,1,1-1H124a1,1,0,0,1,1,1v6A1,1,0,0,1,124,36ZM4,34H123V30H4Z"/>
        <rect class="cls-6" x="40" y="8" width="6" height="21" transform="translate(86 37) rotate(180)"/>
        <path class="cls-4" d="M46,30H40a1,1,0,0,1-1-1V8a1,1,0,0,1,1-1h6a1,1,0,0,1,1,1V29A1,1,0,0,1,46,30Zm-5-2h4V9H41Z"/>
        <rect class="cls-3" x="35" y="70" width="6" height="21" transform="translate(76 161.01) rotate(180)"/>
        <path class="cls-4" d="M41,92H35a1,1,0,0,1-1-1V70a1,1,0,0,1,1-1h6a1,1,0,0,1,1,1V91A1,1,0,0,1,41,92Zm-5-2h4V71H36Z"/>
        <rect class="cls-6" x="17" y="70.01" width="6" height="21" transform="translate(40 161.01) rotate(180)"/>
        <path class="cls-4" d="M23,92H17a1,1,0,0,1-1-1V70a1,1,0,0,1,1-1h6a1,1,0,0,1,1,1V91A1,1,0,0,1,23,92Zm-5-2h4V71H18Z"/>
        <rect class="cls-7" x="7" y="70.01" width="6" height="21"/>
        <path class="cls-4" d="M13,92H7a1,1,0,0,1-1-1V70a1,1,0,0,1,1-1h6a1,1,0,0,1,1,1V91A1,1,0,0,1,13,92ZM8,90h4V71H8Z"/>
        <rect class="cls-6" x="23" y="70" width="6" height="21" transform="translate(52 161.01) rotate(180)"/>
        <path class="cls-4" d="M29,92H23a1,1,0,0,1-1-1V70a1,1,0,0,1,1-1h6a1,1,0,0,1,1,1V91A1,1,0,0,1,29,92Zm-5-2h4V71H24Z"/>
        <rect class="cls-7" x="29" y="70" width="6" height="21"/>
        <path class="cls-4" d="M35,92H29a1,1,0,0,1-1-1V70a1,1,0,0,1,1-1h6a1,1,0,0,1,1,1V91A1,1,0,0,1,35,92Zm-5-2h4V71H30Z"/>
        <rect class="cls-3" x="116.01" y="70.01" width="6" height="21" transform="translate(238.02 161.01) rotate(180)"/>
        <path class="cls-4" d="M122,92h-6a1,1,0,0,1-1-1V70a1,1,0,0,1,1-1h6a1,1,0,0,1,1,1V91A1,1,0,0,1,122,92Zm-5-2h4V71h-4Z"/>
        <rect class="cls-6" x="104" y="70.01" width="6" height="21" transform="translate(214 161.02) rotate(180)"/>
        <path class="cls-4" d="M110,92h-6a1,1,0,0,1-1-1V70a1,1,0,0,1,1-1h6a1,1,0,0,1,1,1V91A1,1,0,0,1,110,92Zm-5-2h4V71h-4Z"/>
        <rect class="cls-7" x="98" y="70.01" width="6" height="21"/>
        <path class="cls-4" d="M104,92H98a1,1,0,0,1-1-1V70a1,1,0,0,1,1-1h6a1,1,0,0,1,1,1V91A1,1,0,0,1,104,92Zm-5-2h4V71H99Z"/>
        <rect class="cls-6" x="110" y="70.01" width="6" height="21" transform="translate(226 161.01) rotate(180)"/>
        <path class="cls-4" d="M116,92h-6a1,1,0,0,1-1-1V70a1,1,0,0,1,1-1h6a1,1,0,0,1,1,1V91A1,1,0,0,1,116,92Zm-5-2h4V71h-4Z"/>
        <rect class="cls-8" x="92" y="70.01" width="6" height="21"/>
        <path class="cls-4" d="M98,92H92a1,1,0,0,1-1-1V70a1,1,0,0,1,1-1h6a1,1,0,0,1,1,1V91A1,1,0,0,1,98,92Zm-5-2h4V71H93Z"/>
        <rect class="cls-2" x="17" y="17" width="15" height="12"/>
        <path class="cls-4" d="M32,30H17a1,1,0,0,1-1-1V17a1,1,0,0,1,1-1H32a1,1,0,0,1,1,1V29A1,1,0,0,1,32,30ZM18,28H31V18H18Z"/>
        <rect class="cls-2" x="16" y="12" width="17" height="5"/>
        <path class="cls-4" d="M33,18H16a1,1,0,0,1-1-1V12a1,1,0,0,1,1-1H33a1,1,0,0,1,1,1v5A1,1,0,0,1,33,18ZM17,16H32V13H17Z"/>
        <path class="cls-4" d="M27,22H22a1,1,0,0,1,0-2h5a1,1,0,0,1,0,2Z"/>
        <g class="cls-9">
            <path class="cls-4" d="M99,13H93a1,1,0,0,1,0-2h6a1,1,0,0,1,0,2Z"/>
            <path class="cls-4" d="M99,26H93a1,1,0,0,1,0-2h6a1,1,0,0,1,0,2Z"/>
        </g>
        <g class="cls-9">
            <path class="cls-4" d="M105,13H99a1,1,0,0,1,0-2h6a1,1,0,0,1,0,2Z"/>
            <path class="cls-4" d="M105,26H99a1,1,0,0,1,0-2h6a1,1,0,0,1,0,2Z"/>
        </g>
        <g class="cls-9">
            <path class="cls-4" d="M93,13H87a1,1,0,0,1,0-2h6a1,1,0,0,1,0,2Z"/>
            <path class="cls-4" d="M93,26H87a1,1,0,0,1,0-2h6a1,1,0,0,1,0,2Z"/>
        </g>
        <g class="cls-9">
            <path class="cls-4" d="M73,13H67a1,1,0,0,1,0-2h6a1,1,0,0,1,0,2Z"/>
            <path class="cls-4" d="M73,26H67a1,1,0,0,1,0-2h6a1,1,0,0,1,0,2Z"/>
        </g>
        <g class="cls-9">
            <path class="cls-4" d="M79,13H73a1,1,0,0,1,0-2h6a1,1,0,0,1,0,2Z"/>
            <path class="cls-4" d="M79,26H73a1,1,0,0,1,0-2h6a1,1,0,0,1,0,2Z"/>
        </g>
        <g class="cls-9">
            <path class="cls-4" d="M67,13H61a1,1,0,0,1,0-2h6a1,1,0,0,1,0,2Z"/>
            <path class="cls-4" d="M67,26H61a1,1,0,0,1,0-2h6a1,1,0,0,1,0,2Z"/>
        </g>
        <g class="cls-9">
            <path class="cls-4" d="M46,13H40a1,1,0,0,1,0-2h6a1,1,0,0,1,0,2Z"/>
            <path class="cls-4" d="M46,26H40a1,1,0,0,1,0-2h6a1,1,0,0,1,0,2Z"/>
        </g>
        <g class="cls-9">
            <path class="cls-4" d="M52,13H46a1,1,0,0,1,0-2h6a1,1,0,0,1,0,2Z"/>
            <path class="cls-4" d="M52,26H46a1,1,0,0,1,0-2h6a1,1,0,0,1,0,2Z"/>
        </g>
        <g class="cls-9">
            <path class="cls-4" d="M19,44H13a1,1,0,0,1,0-2h6a1,1,0,0,1,0,2Z"/>
            <path class="cls-4" d="M19,57H13a1,1,0,0,1,0-2h6a1,1,0,0,1,0,2Z"/>
        </g>
        <g class="cls-9">
            <path class="cls-4" d="M13,44H7a1,1,0,0,1,0-2h6a1,1,0,0,1,0,2Z"/>
            <path class="cls-4" d="M13,57H7a1,1,0,0,1,0-2h6a1,1,0,0,1,0,2Z"/>
        </g>
        <g class="cls-9">
            <path class="cls-4" d="M37,44H31a1,1,0,0,1,0-2h6a1,1,0,0,1,0,2Z"/>
            <path class="cls-4" d="M37,57H31a1,1,0,0,1,0-2h6a1,1,0,0,1,0,2Z"/>
        </g>
        <g class="cls-9">
            <path class="cls-4" d="M43,44H37a1,1,0,0,1,0-2h6a1,1,0,0,1,0,2Z"/>
            <path class="cls-4" d="M43,57H37a1,1,0,0,1,0-2h6a1,1,0,0,1,0,2Z"/>
        </g>
        <g class="cls-9">
            <path class="cls-4" d="M31,44H25a1,1,0,0,1,0-2h6a1,1,0,0,1,0,2Z"/>
            <path class="cls-4" d="M31,57H25a1,1,0,0,1,0-2h6a1,1,0,0,1,0,2Z"/>
        </g>
        <g class="cls-9">
            <path class="cls-4" d="M96,44H90a1,1,0,0,1,0-2h6a1,1,0,0,1,0,2Z"/>
            <path class="cls-4" d="M96,57H90a1,1,0,0,1,0-2h6a1,1,0,0,1,0,2Z"/>
        </g>
        <g class="cls-9">
            <path class="cls-4" d="M102,44H96a1,1,0,0,1,0-2h6a1,1,0,0,1,0,2Z"/>
            <path class="cls-4" d="M102,57H96a1,1,0,0,1,0-2h6a1,1,0,0,1,0,2Z"/>
        </g>
        <g class="cls-9">
            <path class="cls-4" d="M90,44H84a1,1,0,0,1,0-2h6a1,1,0,0,1,0,2Z"/>
            <path class="cls-4" d="M90,57H84a1,1,0,0,1,0-2h6a1,1,0,0,1,0,2Z"/>
        </g>
        <g class="cls-9">
            <path class="cls-4" d="M114,44h-6a1,1,0,0,1,0-2h6a1,1,0,0,1,0,2Z"/>
            <path class="cls-4" d="M114,57h-6a1,1,0,0,1,0-2h6a1,1,0,0,1,0,2Z"/>
        </g>
        <g class="cls-9">
            <path class="cls-4" d="M120,44h-6a1,1,0,0,1,0-2h6a1,1,0,0,1,0,2Z"/>
            <path class="cls-4" d="M120,57h-6a1,1,0,0,1,0-2h6a1,1,0,0,1,0,2Z"/>
        </g>
        <g class="cls-9">
            <path class="cls-4" d="M108,44h-6a1,1,0,0,1,0-2h6a1,1,0,0,1,0,2Z"/>
            <path class="cls-4" d="M108,57h-6a1,1,0,0,1,0-2h6a1,1,0,0,1,0,2Z"/>
        </g>
        <g class="cls-9">
            <path class="cls-4" d="M116,75h-6a1,1,0,0,1,0-2h6a1,1,0,0,1,0,2Z"/>
            <path class="cls-4" d="M116,88h-6a1,1,0,0,1,0-2h6a1,1,0,0,1,0,2Z"/>
        </g>
        <g class="cls-9">
            <path class="cls-4" d="M122,75h-6a1,1,0,0,1,0-2h6a1,1,0,0,1,0,2Z"/>
            <path class="cls-4" d="M122,88h-6a1,1,0,0,1,0-2h6a1,1,0,0,1,0,2Z"/>
        </g>
        <g class="cls-9">
            <path class="cls-4" d="M110,75h-6a1,1,0,0,1,0-2h6a1,1,0,0,1,0,2Z"/>
            <path class="cls-4" d="M110,88h-6a1,1,0,0,1,0-2h6a1,1,0,0,1,0,2Z"/>
        </g>
        <g class="cls-9">
            <path class="cls-4" d="M98,75H92a1,1,0,0,1,0-2h6a1,1,0,0,1,0,2Z"/>
            <path class="cls-4" d="M98,88H92a1,1,0,0,1,0-2h6a1,1,0,0,1,0,2Z"/>
        </g>
        <g class="cls-9">
            <path class="cls-4" d="M104,75H98a1,1,0,0,1,0-2h6a1,1,0,0,1,0,2Z"/>
            <path class="cls-4" d="M104,88H98a1,1,0,0,1,0-2h6a1,1,0,0,1,0,2Z"/>
        </g>
        <g class="cls-9">
            <path class="cls-4" d="M35,75H29a1,1,0,0,1,0-2h6a1,1,0,0,1,0,2Z"/>
            <path class="cls-4" d="M35,88H29a1,1,0,0,1,0-2h6a1,1,0,0,1,0,2Z"/>
        </g>
        <g class="cls-9">
            <path class="cls-4" d="M41,75H35a1,1,0,0,1,0-2h6a1,1,0,0,1,0,2Z"/>
            <path class="cls-4" d="M41,88H35a1,1,0,0,1,0-2h6a1,1,0,0,1,0,2Z"/>
        </g>
        <g class="cls-9">
            <path class="cls-4" d="M29,75H23a1,1,0,0,1,0-2h6a1,1,0,0,1,0,2Z"/>
            <path class="cls-4" d="M29,88H23a1,1,0,0,1,0-2h6a1,1,0,0,1,0,2Z"/>
        </g>
        <g class="cls-9">
            <path class="cls-4" d="M23,75H17a1,1,0,0,1,0-2h6a1,1,0,0,1,0,2Z"/>
            <path class="cls-4" d="M23,88H17a1,1,0,0,1,0-2h6a1,1,0,0,1,0,2Z"/>
        </g>
        <g class="cls-9">
            <path class="cls-4" d="M13,75H7a1,1,0,0,1,0-2h6a1,1,0,0,1,0,2Z"/>
            <path class="cls-4" d="M13,88H7a1,1,0,0,1,0-2h6a1,1,0,0,1,0,2Z"/>
        </g>
    </g>
    <g class="cls-1">
        <path class="cls-4" d="M69,118H59a1,1,0,0,1,0-2H69a1,1,0,0,1,0,2Z"/>
        <path class="cls-4" d="M56,118H55a1,1,0,0,1,0-2h1a1,1,0,0,1,0,2Z"/>
        <path class="cls-4" d="M102,126H31a1,1,0,1,1,0-2h71a1,1,0,0,1,0,2Z"/>
        <path class="cls-4" d="M106,126h-1a1,1,0,1,1,0-2h1a1,1,0,0,1,0,2Z"/>
        <path class="cls-4" d="M28,126H25a1,1,0,0,1,0-2h3a1,1,0,0,1,0,2Z"/>
    </g>
    <path class="cls-10" d="M64,117h0a1.59,1.59,0,0,1-1.59-1.5L60.6,83.68A1.59,1.59,0,0,1,62.18,82h3.64a1.59,1.59,0,0,1,1.59,1.68L65.59,115.5A1.59,1.59,0,0,1,64,117Z"/>
    <g class="cls-1">
        <polygon class="cls-11" points="61.59 101 66.41 101 66.7 96 61.3 96 61.59 101"/>
    </g>
    <g class="cls-9">
        <path class="cls-12" d="M62.18,82a1.59,1.59,0,0,0-1.59,1.68l1.82,31.82A1.59,1.59,0,0,0,64,117V82Z"/>
    </g>
    <path class="cls-4" d="M64,118a2.59,2.59,0,0,1-2.58-2.44L59.6,83.73A2.59,2.59,0,0,1,62.18,81h3.64a2.59,2.59,0,0,1,2.58,2.74l-1.82,31.82A2.59,2.59,0,0,1,64,118ZM62.18,83a.59.59,0,0,0-.59.62l1.82,31.82a.59.59,0,0,0,1.18,0l1.82-31.82a.59.59,0,0,0-.59-.62Z"/>
    <path class="cls-13" d="M42.16,125h0a1.55,1.55,0,0,1-1.27-1.71l3.65-30.9A1.55,1.55,0,0,1,46.34,91l3.5.62a1.55,1.55,0,0,1,1.24,1.88l-7.14,30.28A1.55,1.55,0,0,1,42.16,125Z"/>
    <path class="cls-12" d="M48,91.32,46.34,91a1.55,1.55,0,0,0-1.81,1.34l-3.65,30.9A1.55,1.55,0,0,0,42.16,125Z"/>
    <g class="cls-1">
        <polygon class="cls-11" points="43.52 101 49.32 101 50.49 96 44.11 96 43.52 101"/>
    </g>
    <path class="cls-4" d="M42.43,126a2.55,2.55,0,0,1-2.53-2.85l3.65-30.9a2.55,2.55,0,0,1,3-2.21l3.5.62a2.55,2.55,0,0,1,2,3.1L44.91,124A2.55,2.55,0,0,1,42.43,126Zm3.64-34a.55.55,0,0,0-.54.49l-3.65,30.9a.55.55,0,0,0,.45.61h0a.56.56,0,0,0,.63-.42l7.14-30.28a.55.55,0,0,0-.44-.67L46.17,92Z"/>
    <path class="cls-13" d="M85.84,125h0a1.55,1.55,0,0,0,1.27-1.71l-3.65-30.9A1.55,1.55,0,0,0,81.66,91l-3.5.62a1.55,1.55,0,0,0-1.24,1.88l7.14,30.28A1.55,1.55,0,0,0,85.84,125Z"/>
    <path class="cls-12" d="M87.11,123.27l-3.65-30.9A1.55,1.55,0,0,0,81.66,91l-1.73.3L85.84,125A1.55,1.55,0,0,0,87.11,123.27Z"/>
    <g class="cls-1">
        <polygon class="cls-11" points="78.68 101 84.48 101 83.89 96 77.5 96 78.68 101"/>
    </g>
    <path class="cls-4" d="M85.57,126a2.55,2.55,0,0,1-2.48-2L75.95,93.75a2.55,2.55,0,0,1,2-3.1l3.5-.62a2.55,2.55,0,0,1,3,2.21l3.65,30.9A2.55,2.55,0,0,1,86,126h0A2.56,2.56,0,0,1,85.57,126ZM81.93,92h-.1l-3.5.62a.55.55,0,0,0-.44.67L85,123.58a.55.55,0,0,0,.63.42h0a.55.55,0,0,0,.45-.61l-3.65-30.9a.55.55,0,0,0-.54-.49Z"/>
    <path class="cls-4" d="M64,27a1,1,0,0,1-1-1V23a1,1,0,0,1,2,0v3A1,1,0,0,1,64,27Z"/>
    <rect class="cls-14" x="21" y="36" width="86" height="57"/>
    <g class="cls-1">
        <rect class="cls-11" x="21" y="38" width="86" height="3"/>
    </g>
    <path class="cls-4" d="M21,94a1,1,0,0,1-1-1V36a1,1,0,0,1,1-1h86a1,1,0,0,1,1,1V93a1,1,0,0,1-1,1Zm1-57V92h84V37Z"/>
    <path class="cls-15" d="M106,38H22a2,2,0,0,1-2-2V32h88v4A2,2,0,0,1,106,38Z"/>
    <g class="cls-1">
        <rect class="cls-12" x="20" y="32" width="88" height="3"/>
    </g>
    <path class="cls-4" d="M106,39H22a3,3,0,0,1-3-3V32a1,1,0,0,1,1-1h88a1,1,0,0,1,1,1v4A3,3,0,0,1,106,39ZM21,33v3a1,1,0,0,0,1,1h84a1,1,0,0,0,1-1V33Z"/>
    <rect class="cls-15" x="48" y="26" width="32" height="6"/>
    <g class="cls-1">
        <rect class="cls-12" x="48" y="26" width="32" height="3"/>
    </g>
    <path class="cls-4" d="M80,33H48a1,1,0,0,1-1-1V26a1,1,0,0,1,1-1H80a1,1,0,0,1,1,1v6A1,1,0,0,1,80,33ZM49,31H79V27H49Z"/>
    <path class="cls-15" d="M22,91h84a2,2,0,0,1,2,2v4H20V93A2,2,0,0,1,22,91Z"/>
    <g class="cls-1">
        <path class="cls-12" d="M108,94V93a2,2,0,0,0-2-2H22a2,2,0,0,0-2,2v1Z"/>
    </g>
    <path class="cls-4" d="M108,98H20a1,1,0,0,1-1-1V93a3,3,0,0,1,3-3h84a3,3,0,0,1,3,3v4A1,1,0,0,1,108,98ZM21,96h86V93a1,1,0,0,0-1-1H22a1,1,0,0,0-1,1Z"/>
    <path class="cls-12" d="M81.5,75H47a1,1,0,0,1,0-2H81.5a1,1,0,0,1,0,2Z"/>
    <path class="cls-12" d="M54.88,66H48.13a1,1,0,0,1,0-2h6.75a1,1,0,0,1,0,2Z"/>
    <path class="cls-12" d="M56,69a1,1,0,0,1-.94-.65l-3.56-9.5-3.56,9.5a1,1,0,1,1-1.87-.7l4.5-12a1,1,0,0,1,1.87,0l4.5,12A1,1,0,0,1,56,69Z"/>
    <path class="cls-12" d="M65,63H62a1,1,0,0,1-1-1V56a1,1,0,0,1,1-1h3a4,4,0,0,1,0,8Zm-2-2h2a2,2,0,0,0,0-4H63Z"/>
    <path class="cls-12" d="M65,69H62a1,1,0,0,1-1-1V62a1,1,0,0,1,1-1h3a4,4,0,0,1,0,8Zm-2-2h2a2,2,0,0,0,0-4H63Z"/>
    <path class="cls-12" d="M78.5,69H77a4,4,0,0,1-4-4V59a4,4,0,0,1,4-4h1.5a4,4,0,0,1,4,4,1,1,0,1,1-2,0,2,2,0,0,0-2-2H77a2,2,0,0,0-2,2v6a2,2,0,0,0,2,2h1.5a2,2,0,0,0,2-2,1,1,0,0,1,2,0A4,4,0,0,1,78.5,69Z"/>
    <path class="cls-12" d="M85,87H95a2,2,0,0,1,2,2v2a0,0,0,0,1,0,0H85a0,0,0,0,1,0,0V87A0,0,0,0,1,85,87Z"/>
    <path class="cls-4" d="M97,92H85a1,1,0,0,1-1-1V87a1,1,0,0,1,1-1H95a3,3,0,0,1,3,3v2A1,1,0,0,1,97,92ZM86,90H96V89a1,1,0,0,0-1-1H86Z"/>
    <g class="cls-9">
        <path class="cls-4" d="M105,36a1,1,0,0,1-.71-.29,1,1,0,1,1,1.09.21A1,1,0,0,1,105,36Z"/>
        <path class="cls-4" d="M105,95l-.2,0-.18-.06a.76.76,0,0,1-.18-.09l-.15-.12A1,1,0,0,1,104,94a1,1,0,0,1,.08-.38,1.15,1.15,0,0,1,.21-.33,1,1,0,0,1,1.42,0,1.15,1.15,0,0,1,.21.33A1,1,0,0,1,106,94a1,1,0,0,1-1,1Z"/>
        <path class="cls-4" d="M23,36a.84.84,0,0,1-.38-.08,1,1,0,0,1-.33-.21,1,1,0,0,1,0-1.42,1,1,0,0,1,.33-.21A1,1,0,0,1,23.2,34l.18.06a.76.76,0,0,1,.18.09l.15.12a1,1,0,0,1,0,1.42l-.15.12a.76.76,0,0,1-.18.09L23.2,36Z"/>
        <path class="cls-4" d="M23,95a1,1,0,0,1-.38-.08,1,1,0,0,1-.33-.21A1,1,0,0,1,22,94a1,1,0,0,1,.08-.38.9.9,0,0,1,.54-.54A1,1,0,0,1,23.2,93l.18.06a.76.76,0,0,1,.18.09l.15.12a1,1,0,0,1,.21.33A1,1,0,0,1,24,94a1.05,1.05,0,0,1-.29.71l-.15.12a.76.76,0,0,1-.18.09L23.2,95Z"/>
        <path class="cls-4" d="M64,30a1,1,0,1,1,.71-.29l-.15.12a.76.76,0,0,1-.18.09L64.2,30Z"/>
    </g>
</svg>
