<svg height="32" viewBox="0 0 32 32" width="32" xmlns="http://www.w3.org/2000/svg"><g fill="none" fill-rule="evenodd"><rect fill="#fff" height="32" rx="16" width="32"/><g fill-rule="nonzero"><g fill="#e01e5a" transform="translate(5 16.532258)"><path d="m4.68387097 2.34193548c0 1.25967742-1.02903226 2.28870968-2.28870968 2.28870968s-2.28870968-1.02903226-2.28870968-2.28870968 1.02903226-2.28870967 2.28870968-2.28870967h2.28870968z"/><path d="m5.83709677 2.34193548c0-1.25967742 1.02903226-2.28870967 2.28870968-2.28870967s2.28870965 1.02903225 2.28870965 2.28870967v5.73064517c0 1.25967741-1.02903223 2.28870965-2.28870965 2.28870965s-2.28870968-1.02903224-2.28870968-2.28870965z"/></g><g fill="#36c5f0" transform="translate(5 5)"><path d="m8.12580645 4.68387097c-1.25967742 0-2.28870968-1.02903226-2.28870968-2.28870968s1.02903226-2.28870968 2.28870968-2.28870968 2.28870965 1.02903226 2.28870965 2.28870968v2.28870968z"/><path d="m8.12580645 5.83709677c1.25967742 0 2.28870965 1.02903226 2.28870965 2.28870968s-1.02903223 2.28870965-2.28870965 2.28870965h-5.73064516c-1.25967742 0-2.28870968-1.02903223-2.28870968-2.28870965s1.02903226-2.28870968 2.28870968-2.28870968z"/></g><g fill="#2eb67d" transform="translate(16.532258 5)"><path d="m5.78387097 8.12580645c0-1.25967742 1.02903226-2.28870968 2.28870968-2.28870968 1.25967741 0 2.28870965 1.02903226 2.28870965 2.28870968s-1.02903224 2.28870965-2.28870965 2.28870965h-2.28870968z"/><path d="m4.63064516 8.12580645c0 1.25967742-1.02903226 2.28870965-2.28870968 2.28870965s-2.28870967-1.02903223-2.28870967-2.28870965v-5.73064516c0-1.25967742 1.02903225-2.28870968 2.28870967-2.28870968s2.28870968 1.02903226 2.28870968 2.28870968z"/></g><g fill="#ecb22e" transform="translate(16.532258 16.532258)"><path d="m2.34193548 5.78387097c1.25967742 0 2.28870968 1.02903226 2.28870968 2.28870968 0 1.25967741-1.02903226 2.28870965-2.28870968 2.28870965s-2.28870967-1.02903224-2.28870967-2.28870965v-2.28870968z"/><path d="m2.34193548 4.63064516c-1.25967742 0-2.28870967-1.02903226-2.28870967-2.28870968s1.02903225-2.28870967 2.28870967-2.28870967h5.73064517c1.25967741 0 2.28870965 1.02903225 2.28870965 2.28870967s-1.02903224 2.28870968-2.28870965 2.28870968z"/></g></g></g></svg>