<svg height="32" viewBox="0 0 32 32" width="32" xmlns="http://www.w3.org/2000/svg"><g fill="none" fill-rule="evenodd"><rect fill="#fff" fill-rule="evenodd" height="32" rx="16" width="32"/><g transform="translate(3.333333 3.333333)"><path d="m12.2519657 13.9729352-7.4526857 7.3477183c-.18788571.1855775-.17691429.4948733.0312.6588169 2.12365714 1.6695211 4.81234286 2.6697465 7.7396571 2.6697465 2.9276572 0 5.6166858-1.0002254 7.7403429-2.6697465.2077714-.1639436.2190857-.4739155.0308571-.6588169l-7.452-7.3477183c-.1758857-.1734084-.4614857-.1734084-.6373714 0" fill="#fd6d6d" fill-rule="evenodd"/><path d="m12.252 13.9730704-7.45268571 7.3477183c-.18788572.1852395-.17691429.4948733.0312.6584789 2.12365714 1.6698592 4.81234285 2.6697465 7.73965711 2.6697465 2.9276572 0 5.6166857-.9998873 7.7406857-2.6697465.2074286-.1636056.2187429-.4735775.0305143-.6584789l-7.452-7.3477183c-.0881143-.0868732-.2033143-.1301408-.3188571-.1301408-.1152 0-.2304.0432676-.3185143.1301408z"/><path d="m6.83873143 16.2510085c-.53177143-.7663099-.90994286-1.643493-1.08994286-2.5906479-.04045714-.2136338-.22148571-.3725071-.44228571-.3725071h-4.63268572c-.26674285 0-.48171428.228169-.45188571.4891268.26742857 2.3472676 1.20685714 4.4923943 2.62457143 6.2460845.16594285.2058591.48102857.216676.66925714.0310986l3.27737143-3.2312113c.15565714-.1538028.17005714-.3927887.0456-.5719436" fill="#fd7e58" fill-rule="evenodd"/><path d="m.67337143 13.2878873c-.26605714 0-.48137143.228169-.45154286.4891268.26742857 2.3469296 1.2072 4.4920563 2.62457143 6.2460845.16594286.2055211.48102857.216676.66925714.0310986l3.27737143-3.2308733c.15565714-.1541408.1704-.3931267.0456-.5722816-.53142857-.7659719-.90994286-1.643493-1.0896-2.590986-.0408-.2132957-.22182857-.372169-.44228571-.372169z"/><path d="m6.79234286 7.96255775-3.27668572-3.23019719c-.18822857-.18591549-.50331428-.17509859-.66925714.03042254-1.41771429 1.75402817-2.35645714 3.89915493-2.62491429 6.2457465-.02948571.2609577.18548572.4894648.45188572.4894648h4.63371428c.22011429 0 .40148572-.1592113.44194286-.3728451.18034286-.9471549.55748572-1.82467606 1.08891429-2.59064789.1248-.17915493.11005714-.41847887-.0456-.57194366" fill="#fe8d26" fill-rule="evenodd"/><path d="m2.8464 4.7628169c-1.41771429 1.75402817-2.35645714 3.8988169-2.62457143 6.2457465-.02982857.2609577.18548572.4894648.45154286.4894648h4.63371428c.21977143 0 .40182858-.1592113.44194286-.3725071.18034286-.9474929.55748572-1.82501406 1.08925714-2.59098589.12411429-.17949296.10971429-.41847887-.04594285-.57194366l-3.27668572-3.23019718c-.08914285-.08788733-.20674285-.13183099-.32331428-.13183099-.12994286 0-.25851429.05408451-.34594286.16225352z"/><path d="m11.6626629 5.23172958v-4.56777465c0-.26264789-.2310858-.47459155-.4964572-.44552113-2.38011427.264-4.55657141 1.19019719-6.33565713 2.58794366-.20811428.16360564-.21942857.47425353-.03051428.65983099l3.27668571 3.23019718c.15565714.15380282.39771429.16833803.57977143.04529578.7776-.52428169 1.66731427-.89645071 2.62799997-1.07357747.2166857-.04056338.3781715-.21870422.3781715-.43639436" fill="#ff9e00" fill-rule="evenodd"/><path d="m11.1661714.21870423c-2.38011426.26366197-4.55622854 1.19019718-6.33565711 2.58760563-.20811429.16360563-.21942858.47425352-.03051429.65983099l3.27634286 3.23019718c.156.15380282.39771428.16833803.58011428.04529577.77725715-.52428169 1.66731426-.8964507 2.62834286-1.07391549.2163429-.03988732.3778286-.21870423.3778286-.43605634v-4.56777465c0-.2460845-.2033143-.44788732-.4474286-.44788732-.0161143 0-.0325714.00067606-.0490286.00270423z"/><path d="m20.3099314 2.80644507c-1.7790857-1.39808451-3.9552-2.32394366-6.3356571-2.58794366-.2643429-.02974648-.4964572.18287324-.4964572.44585915v4.56743662c0 .21769014.1614858.39616902.3781715.43605634.9610285.17746479 1.8507428.54929578 2.6276571 1.07425352.1827429.12270423.4244572.10816902.5804572-.04529577l3.2766857-3.23053521c.1885714-.18557747.1776-.49622536-.0308572-.65983099" fill="#ff9e00" fill-rule="evenodd"/><path d="m13.4780571.66422535v4.56777465c0 .21735211.1611429.39583099.3778286.43571831.9610286.17780282 1.8507429.54929577 2.6276572 1.07425352.1827428.12270423.4244571.10850704.5804571-.04529577l3.2766857-3.23053521c.1889143-.18557747.1776-.49622536-.0305143-.65983099-1.7794285-1.39774648-3.9552-2.32394366-6.3356571-2.58760563-.0168-.00202817-.0332572-.00304226-.0497143-.00304226-.2434286 0-.4467429.20247888-.4467429.44856338z"/><path d="m19.8339771 11.4979606h4.6330286c.2664 0 .4813714-.227831.4518857-.4894648-.2677714-2.34659157-1.2072-4.49171834-2.6249143-6.2457465-.1659428-.20484507-.4810285-.21566198-.6692571-.03042254l-3.2763429 3.23019718c-.156.15414085-.1707428.39245071-.0459428.57194367.5317714.76664788.9092571 1.64416899 1.0892571 2.59132389.0408.2129578.2214857.3721691.4422857.3721691" fill="#fe8d26" fill-rule="evenodd"/><path d="m21.6250286 4.73239437-3.2766857 3.22985915c-.156.15447887-.1704.39278873-.0462858.57228169.5321143.76664789.9099429 1.64416899 1.0896 2.59098589.0408.2132958.2218286.3725071.4422858.3725071h4.6330285c.2664 0 .4813715-.228169.4518857-.4894648-.2674285-2.3469296-1.2072-4.49171833-2.6245714-6.2457465-.0874286-.10783098-.2163428-.16225352-.3459428-.16225352-.1169143 0-.2341715.04394366-.3233143.13183099z"/><path d="m19.3916914 13.6603268c-.1796571.9471549-.5574857 1.824676-1.0892571 2.5913239-.1244572.1791549-.1100572.4178028.0459428.5719437l3.2766858 3.2301971c.1882285.1859155.5029714.1750986.6689142-.0304225 1.4180572-1.7540282 2.3574858-3.8994929 2.6249143-6.2460845.0298286-.2612958-.1854857-.4898028-.4518857-.4898028h-4.6326857c-.2208 0-.4018286.1592113-.4426286.3728451" fill="#fd7e58" fill-rule="evenodd"/><path d="m19.8342857 13.2875493c-.2208 0-.4018286.1592113-.4426286.372507-.1796571.947493-.5574857 1.8250141-1.0892571 2.591662-.1244571.1791549-.1097143.4178028.0459429.5722817l3.2766857 3.2298592c.1882285.1859154.5029714.1747605.6692571-.0304226 1.4173714-1.7543662 2.3571429-3.8994929 2.6245714-6.2460845.0294858-.2612958-.1854857-.4898028-.4515428-.4898028z"/></g></g></svg>