<svg height="121" viewBox="0 0 179 121" width="179" xmlns="http://www.w3.org/2000/svg" xmlns:xlink="http://www.w3.org/1999/xlink"><linearGradient id="a" x1="0%" x2="100%" y1="0%" y2="100%"><stop offset="0" stop-color="#c7e4e2"/><stop offset="1" stop-color="#017acd"/></linearGradient><linearGradient id="b" x1="0%" x2="100%" y1="0%" y2="100%"><stop offset="0" stop-color="#db2476"/><stop offset="1" stop-color="#8d30ff"/></linearGradient><mask id="c" fill="#fff"><path d="m0 95h134v-95h-134z" fill="#fff" fill-rule="evenodd"/></mask><g fill="none" fill-rule="evenodd" transform="translate(-.000091 -1.000626)"><path d="m149.700291 46.663326c-1.859-12.803-11.549-22.529-23.512-25.046-4.259-.895-8.122-3.226-10.932-6.548-2.503-2.959-5.529-5.58499998-9.063-7.73799998-15.4820004-9.432-35.8720004-6.062-47.5110004 7.83899998-3.862 4.613-6.4 9.847-7.681 15.27-1.401 5.926-5.48 10.868-10.882 13.674-14.163 7.359-21.259 26.459-8.351 44.384 1.523 2.113 3.865 3.709 6.353 4.909 4.604 2.222 8.085 6.144 10.019 10.876 3.165 7.74 9.689 14.023 18.335 16.566 8.606 2.532 17.451.812 24.289-3.929 4.834-3.352 10.9490004-4.486 16.6240004-2.943 8.263 2.248 17.436.831 24.858-4.654 9.373-6.927 13.366-18.426 11.181-29.139-.992-4.857.01-9.849 2.508-14.131 3.297-5.651 4.778-12.412 3.765-19.39" fill="#97c1ff" opacity=".387161"/><g transform="translate(24.000091 14.000626)"><path d="m2 9.63636364v81.72727276c0 1.4552727 1.17376 2.6363636 2.62 2.6363636h125.76c1.44624 0 2.62-1.1810909 2.62-2.6363636v-81.72727276c0-1.45527273-1.17376-2.63636364-2.62-2.63636364h-125.76c-1.44624 0-2.62 1.18109091-2.62 2.63636364" fill="url(#a)"/><path d="m130.38 89.8h-125.76c-1.44624 0-2.62-1.2544-2.62-2.8v4.2c0 1.5456 1.17376 2.8 2.62 2.8h125.76c1.44624 0 2.62-1.2544 2.62-2.8v-4.2c0 1.5456-1.17376 2.8-2.62 2.8" fill="#5b58bc" opacity=".137254"/><path d="m4.62 10.2h125.76c1.44624 0 2.62 1.2544 2.62 2.8v-4.2c0-1.5456-1.17376-2.8-2.62-2.8h-125.76c-1.44624 0-2.62 1.2544-2.62 2.8v4.2c0-1.5456 1.17376-2.8 2.62-2.8" fill="#fff" opacity=".237491"/><path d="m2 9.63636364v81.72727276c0 1.4552727 1.17376 2.6363636 2.62 2.6363636h125.76c1.44624 0 2.62-1.1810909 2.62-2.6363636v-81.72727276c0-1.45527273-1.17376-2.63636364-2.62-2.63636364h-125.76c-1.44624 0-2.62 1.18109091-2.62 2.63636364z" stroke="#6d6daa" stroke-linecap="round" stroke-linejoin="round" stroke-width="2"/><path d="m7 88h60v-8h-60z" fill="#ced8ee" mask="url(#c)"/><path d="m7 88h60v-8h-60z" mask="url(#c)" stroke="#434345" stroke-linecap="round" stroke-linejoin="round" stroke-width="2"/><path d="m7 84v4h60c0-2.2093333-1.7517391-4-3.9130435-4z" fill="#ced8ee" mask="url(#c)"/><path d="m7 84v4h60c0-2.2093333-1.7517391-4-3.9130435-4z" mask="url(#c)" stroke="#434345" stroke-linecap="round" stroke-linejoin="round" stroke-width="2"/><path d="m59.173913 1h-52.173913v79.0909091h52.173913c4.3213044 0 7.826087 3.5419545 7.826087 7.9090909v-80.40909091c0-4.36713636-3.5047826-6.59090909-7.826087-6.59090909" fill="#fff" mask="url(#c)"/><path d="m59.2 1h-5.2c4.3069 0 7.8 2.22377273 7.8 6.59090909v72.96004541c3.0277 1.0861819 5.2 4.0072728 5.2 7.4490455v-80.40909091c0-4.36713636-3.4931-6.59090909-7.8-6.59090909" fill="#7690a8" mask="url(#c)" opacity=".140741"/><path d="m59.173913 1h-52.173913v79.0909091h52.173913c4.3213044 0 7.826087 3.5419545 7.826087 7.9090909v-80.40909091c0-4.36713636-3.5047826-6.59090909-7.826087-6.59090909z" mask="url(#c)" stroke="#434345" stroke-linecap="round" stroke-linejoin="round" stroke-width="2"/><path d="m67 88h60v-8h-60z" fill="#ced8ee" mask="url(#c)"/><path d="m67 88h60v-8h-60z" mask="url(#c)" stroke="#434345" stroke-linecap="round" stroke-linejoin="round" stroke-width="2"/><path d="m127 84v4h-60c0-2.2093333 1.7517391-4 3.9130435-4z" fill="#ced8ee" mask="url(#c)"/><path d="m127 84v4h-60c0-2.2093333 1.7517391-4 3.9130435-4z" mask="url(#c)" stroke="#434345" stroke-linecap="round" stroke-linejoin="round" stroke-width="2"/><path d="m74.826087 1h52.173913v79.0909091h-52.173913c-4.3213044 0-7.826087 3.5419545-7.826087 7.9090909v-80.40909091c0-4.36713636 3.5047826-6.59090909 7.826087-6.59090909" fill="#fff" mask="url(#c)"/><path d="m74.8 1h5.2c-4.3069 0-7.8 2.22377273-7.8 6.59090909v72.96004541c-3.0277 1.0861819-5.2 4.0072728-5.2 7.4490455v-80.40909091c0-4.36713636 3.4931-6.59090909 7.8-6.59090909" fill="#7690a8" mask="url(#c)" opacity=".135324"/><path d="m74.826087 1h52.173913v79.0909091h-52.173913c-4.3213044 0-7.826087 3.5419545-7.826087 7.9090909v-80.40909091c0-4.36713636 3.5047826-6.59090909 7.826087-6.59090909z" mask="url(#c)" stroke="#434345" stroke-linecap="round" stroke-linejoin="round" stroke-width="2"/><g mask="url(#c)" stroke="#6d6daa" stroke-linecap="round" stroke-linejoin="round" stroke-width="2"><g transform="translate(75 8)"><path d="m0 11.8123687h45"/><path d="m0 1.31236875h45"/><path d="m0 6.56236875h45"/><path d="m0 17.0623687h18.5294118"/><path d="m13.2352941 27.5623687h18.5294118"/><path d="m0 35.4373687h45"/><path d="m0 40.6873687h45"/><path d="m0 45.9373687h45"/><path d="m0 51.1873687h45"/><path d="m0 56.4373687h45"/><path d="m0 61.6873687h7.94117647"/></g></g><path d="m111.727273 3h-11.454546c-.7038179 0-1.272727.5824-1.272727 1.3v47.2c0 .5148.2952727.9789.756 1.1882l11.454545 5.2c.165455.0754.341091.1118.516728.1118.241818 0 .483636-.0715.693636-.2093.361455-.2405.579091-.65.579091-1.0907v-52.4c0-.7176-.568909 27.7-1.272727 27.7" fill="#7690a8" mask="url(#c)" opacity=".34"/><path d="m100 1v48.6666667l12 5.3333333v-54z" fill="url(#b)" mask="url(#c)"/><path d="m100 5h12v-4h-12z" fill="#fff9e0" mask="url(#c)"/><g stroke-linecap="round" stroke-linejoin="round" stroke-width="2"><path d="m100 1v48.6666667l12 5.3333333v-54z" mask="url(#c)" stroke="#434345"/><g mask="url(#c)" stroke="#6d6daa"><g transform="translate(13 8)"><path d="m1.31428571 1.31236875h11.82857139"/><path d="m5.25714286 11.8123687h3.94285714"/><path d="m13.1428571 1.31236875v1.96875"/><path d="m1.31428571 1.31236875v1.96875"/><path d="m7.22857143 11.8123687v-10.49999995"/><path d="m1.31428571 17.0623687h44.68571429"/><path d="m21.0285714 11.8123687h24.9714286"/><path d="m21.0285714 1.31236875h24.9714286"/><path d="m21.0285714 6.56236875h24.9714286"/><path d="m1.31428571 22.3123687h44.68571429"/><path d="m1.31428571 27.5623687h44.68571429"/><path d="m1.31428571 32.8123687h5.25714286"/><path d="m1.31428571 40.6873687h44.68571429"/><path d="m1.31428571 45.9373687h44.68571429"/><path d="m1.31428571 51.1873687h44.68571429"/><path d="m1.31428571 56.4373687h44.68571429"/><path d="m1.31428571 61.6873687h28.91428569"/></g></g></g></g><path d="m6.6188906 43.256626c.539 1.616 1.616 2.692 3.231 3.231 1.616.539 1.616 1.077 0 1.616-1.615.538-2.692 1.615-3.231 3.23-.538 1.615-1.076 1.615-1.615 0-.538-1.615-1.615-2.692-3.231-3.23-1.615-.539-1.615-1.077 0-1.616 1.616-.539 2.693-1.615 3.231-3.231.539-1.615 1.077-1.615 1.615 0" fill="#97c1ff"/><path d="m173.549487 64.4424952c.615631 1.8468924 1.845692 3.0769539 3.691384 3.6925847 1.846893.6156307 1.846893 1.2312615 0 1.8468923-1.845692.6156308-3.075753 1.8456923-3.691384 3.6913846-.615631 1.8468923-1.231262 1.8468923-1.846893 0-.61563-1.8456923-1.845692-3.0757538-3.691384-3.6913846-1.846892-.6156308-1.846892-1.2312616 0-1.8468923 1.845692-.6156308 3.075754-1.8456923 3.691384-3.6925847.615631-1.8456923 1.231262-1.8456923 1.846893 0" fill="#ffcf3f"/><path d="m150.805391 1.91092602c.41 1.23 1.23 2.051 2.461 2.462 1.231.41 1.231.82 0 1.23-1.231.411-2.051 1.231-2.461 2.461-.41 1.232-.82 1.232-1.23 0-.412-1.23-1.232-2.05-2.462-2.461-1.231-.41-1.231-.82 0-1.23 1.23-.411 2.05-1.232 2.462-2.462.41-1.23.82-1.23 1.23 0" fill="#ff99b1"/></g></svg>