<svg height="34" viewBox="0 0 89 34" width="89" xmlns="http://www.w3.org/2000/svg"><g fill="#e04e39"><path d="m87.4884751 23.0741494s-2.1650176 1.6396854-4.0707847 1.4566006c-1.905767-.1830847-1.3072845-4.3401853-1.3072845-4.3401853s.4109397-3.8124705-.7115599-4.1328688c-1.1197416-.3177059-2.5014917.993504-2.5014917.993504s-1.7182241 1.860464-2.5401034 4.2324884l-.2261547.0726954s.2620085-4.159793-.0358538-5.1075258c-.2233968-.4738664-2.278095-.4361724-2.6145691.401171-.336474.8400359-1.9802326 6.6745158-2.09331 9.1192355 0 0-3.2130516 2.662806-6.0124056 3.0989785-2.8021119.4388649-3.4750601-1.2762083-3.4750601-1.2762083s7.6203104-2.0785503 7.3583019-8.0234195c-.2592505-5.9448693-6.1447888-3.74516-6.809463-3.2578315-.6453683.4738664-4.0845746 2.4985683-5.0884809 8.1068847-.0330958.1884695-.0937714 1.0231206-.0937714 1.0231206s-2.9510432 1.930467-4.5948017 2.4420273c0 0 4.5948017-7.5495531-1.0066643-10.9770071-1.5754133-.9257807-2.9486326-.0740375-3.7654962.7080688-.501629.4802848 6.7910049-7.3071968 5.1086345-14.27518659-.7998154-3.31706471-2.4987337-3.6724645-4.0569947-3.13397997-2.3663505.91003885-3.2626954 2.2589426-3.2626954 2.2589426s-3.0641204 4.34018532-3.7756803 10.79661486c-.708802 6.4537371-1.754078 14.2590704-1.754078 14.2590704s-1.4589737 1.3865976-2.802112 1.459293c-1.3458963.070003-.7474137-3.9040128-.7474137-3.9040128s1.045276-6.0525661.9735684-7.0756867c-.0772235-1.0204282-.1516891-1.56699-1.384508-1.9304671-1.232819-.3661695-2.5787151 1.165819-2.5787151 1.165819s-3.5467677 5.2502242-3.84463 6.0525661l-.1903009.331168-.1847849-.2207786s2.5014916-7.1483822.1130773-7.2560791c-2.3911723-.1103893-3.9604653 2.5524167-3.9604653 2.5524167s-2.7276464 4.4505746-2.8407238 4.9594425l-.1847849-.2180862s1.1197416-5.1775288.8963449-6.4564295c-.2261547-1.2762084-1.4562157-1.0204282-1.4562157-1.0204282s-1.569293-.1830848-1.9802327.8023419c-.4109396.9854267-1.905767 7.5118592-2.09331 9.5904095 0 0-3.9218535 2.7355014-6.5005688 2.7705029-2.57595721.037694-2.31394871-1.5939142-2.31394871-1.5939142s9.45161191-3.1582117 6.87289661-9.3938626c-1.1583533-1.6046839-2.5014916-2.108167-4.4072587-2.0731655-1.90576711.037694-4.26935958 1.1712039-5.80004082 4.5259625-.7336238 1.5992991-.99839028 3.1205179-1.15007941 4.2674899 0 0-1.65203255.331168-2.54837742-.3984785-.89910285-.7296466-1.35968622 0-1.35968622 0s-1.53895519 1.9170049-.00827395 2.4985682c1.53343922.5842557 3.92185355.8561904 3.92185355.8561904.22063874 1.0204282.85773309 2.7570408 2.7248884 4.1382536 2.80211197 2.0785502 8.17742317-.191162 8.17742317-.191162l2.2036294-1.2062053s.0744656 1.9735458 1.6823704 2.261635c1.6051468.2880892 2.2780949-.0053848 5.0802069-6.6422067 1.6437586-3.3924525 1.7568359-3.2093678 1.7568359-3.2093678.184785-.0376939-1.0838878 6.4537371-.5984825 8.2038118.4854052 1.7527672 2.614569 1.5696824 2.614569 1.5696824s1.1583534.2180863 2.09331-2.9912815c.9321987-3.2093678 2.7276464-6.7472112 2.7276464-6.7472112.2206387 0-.5626288 6.6368218.6315784 8.753066 1.196965 2.1162441 4.2969392.7107996 4.2969392.7107996s2.1677756-1.0661993 2.5042497-1.3946749c0 0 2.5704413 2.1377836 6.1971905 1.7500747 8.1084736-1.5589127 10.9933251-3.6643872 10.9933251-3.6643872s1.392782 3.446301 5.7090273 3.7666993c4.9285178.363477 7.6203103-2.662806 7.6203103-2.662806s-.0386117 1.9681609 1.6796124 2.662806c1.7209822.6919526 2.8765776-3.203983 2.8765776-3.203983l2.8765775-7.7380227c.2620085 0 .4109396 5.032138 3.2516634 5.8344799 2.8379657.802342 6.5364226-1.879311 6.5364226-1.879311s.8963448-.4819437.7474137-1.9412367c-.1516892-1.4592931-1.4948275-.9154237-1.4948275-.9154237zm-74.8241114-3.6509252c1.0066642.9477328.6343363 2.9885892-1.2714308 4.2647975-1.90300906 1.2789008-2.76350013 1.0231206-2.76350013 1.0231206.11307735-4.3401853 3.02826663-6.2383433 4.03493093-5.2879181zm37.169353-14.98871688c.6343364 3.28206322-5.5656121 13.05555748-5.5656121 13.05555748.0744655-2.1889396 2.2780949-9.59040952 2.2780949-9.59040952s2.6504229-6.74721117 3.2875172-3.46514796zm-6.1282409 24.90760198s-.4854052-1.6046839.8963449-6.09026c1.384508-4.4855762 4.6334134-2.7355015 4.6334134-2.7355015s2.2422412 1.6773793.4854053 6.1629555c-1.754078 4.4855761-6.0151636 2.662806-6.0151636 2.662806zm18.9032238-8.7880675c1.5306812-2.7355015 2.7276464-1.2412069 2.7276464-1.2412069s1.3072845 1.3865977-.187543 3.465148c-1.4948274 2.0785503-3.659845 1.9331594-3.659845 1.9331594s-.4109397-1.4242916 1.1197416-4.1571005z"/><path d="m77.6578249 32.3567531v-.4420191h.3633953c.0503979 0 .1007959.0040927.153846.0081855.0530504.0061392.1034484.0163711.1458888.0306958.0450928.0143247.0795757.0347885.1061005.0613915.0291778.026603.0424404.0634379.0424404.1084584 0 .1023192-.0397879.1678036-.1193632.1944066-.0795757.026603-.1830241.0388813-.3076923.0388813zm-.4323606-.70191v1.6821283h.4323606v-.7182811h.270557l.5305039.7182811h.4535811l-.5835544-.7346522c.0795757-.0061391.153846-.0184174.2254641-.0368349.0689656-.0184175.1299737-.0450204.1803713-.079809.0530504-.0347885.0928383-.079809.122016-.1350614.0318303-.0552524.0450929-.1207367.0450929-.1984993 0-.1821282-.0742706-.3110505-.220159-.3847203-.1485414-.0757163-.3607428-.1125512-.6339524-.1125512zm-.6923079.8431105c0-.1718963.0371354-.3294679.1140586-.4727149.0769231-.1432469.1803712-.26603.3129973-.3703956.1299733-.1043656.2864722-.186221.4641909-.2455662.1803712-.0593451.3713529-.0879945.5755968-.0879945.2015914 0 .3925731.0286494.5702918.0879945.1803712.0593452.3342175.1412006.4668433.2455662.1326262.1043656.2360742.2271487.3156499.3703956.0769232.143247.1167111.3008186.1167111.4727149s-.0397879.3294679-.1167111.4747613c-.0795757.1432469-.1830237.2701228-.3156499.3744884-.1326258.106412-.2864721.1882674-.4668433.2476125-.1777187.0593452-.3687004.0879946-.5702918.0879946-.2042439 0-.3952256-.0286494-.5755968-.0879946-.1777187-.0593451-.3342176-.1412005-.4641909-.2476125-.1326261-.1043656-.2360742-.2312415-.3129973-.3744884-.0769232-.1452934-.1140586-.302865-.1140586-.4747613zm-.5331564 0c0 .2312415.055703.4379263.1644564.622101.1114057.186221.2572944.3437926.4403182.4747612.1856762.1309687.3978781.2312415.6392574.3008186.2413792.0695771.4933686.1043656.755968.1043656.265252 0 .5172413-.0347885.7586206-.1043656.2413792-.0695771.4535811-.1698499.6392573-.3008186.1830238-.1309686.3289126-.2885402.4403182-.4747612.1087534-.1841747.1618039-.3908595.1618039-.622101 0-.2271487-.0530505-.4338335-.1618039-.6180082-.1114056-.186221-.2572944-.3437926-.4403182-.4727148-.1856762-.1309687-.3978781-.2312415-.6392573-.3008186-.2413793-.0716235-.4933686-.106412-.7586206-.106412-.2625994 0-.5145888.0347885-.755968.106412-.2413793.0695771-.4535812.1698499-.6392574.3008186-.1830238.1289222-.3289125.2864938-.4403182.4727148-.1087534.1841747-.1644564.3908595-.1644564.6180082z"/></g></svg>