<svg height="34" viewBox="0 0 129 34" width="129" xmlns="http://www.w3.org/2000/svg"><g fill="none"><path d="m76.3785714 14.5714286h3.4v12.1428571h-3.4v-1.5785714c-1.2142857 1.8214286-2.7928571 1.9428571-3.7642857 1.9428571-3.7642857 0-6.1928571-2.9142857-6.1928571-6.4357143 0-3.6428571 2.4285714-6.4357142 5.95-6.4357142.9714285 0 2.7928571.1214285 3.8857143 1.9428571v-1.5785714zm-6.3142857 6.0714285c0 1.9428572 1.3357143 3.4 3.4 3.4 1.9428572 0 3.4-1.4571428 3.4-3.4 0-1.9428571-1.3357143-3.4-3.4-3.4-1.9428571 0-3.4 1.4571429-3.4 3.4zm16.3928572-3.1571428v9.2285714h-3.4v-9.2285714h-1.3357143v-2.9142857h1.3357143v-4.1285715h3.4v4.1285715h2.3071428v2.9142857zm10.3214285 0c-.85-.7285714-1.5785714-.85-1.9428571-.85-.85 0-1.3357143.3642857-1.3357143.9714286 0 .3642857.1214286.7285714 1.0928571 1.0928571l.85.2428571c.9714286.3642858 2.4285715.7285715 3.0357143 1.7.3642857.4857143.6071429 1.2142858.6071429 2.0642858 0 1.0928571-.3642857 2.1857142-1.3357143 3.0357142s-2.1857143 1.3357143-3.6428571 1.3357143c-2.55 0-3.8857143-1.2142857-4.7357143-2.0642857l1.8214285-2.0642857c.7285715.7285714 1.7 1.4571429 2.6714286 1.4571429s1.7-.4857143 1.7-1.3357143c0-.7285715-.6071428-1.0928572-1.0928571-1.2142857l-.7285715-.2428572c-.85-.3642857-1.8214285-.7285714-2.55-1.4571428-.6071428-.6071429-.9714285-1.3357143-.9714285-2.3071429 0-1.2142857.6071428-2.1857143 1.2142857-2.7928571.9714286-.7285715 2.1857143-.85 3.1571428-.85.85 0 2.3071429.1214285 3.8857143 1.3357142zm7.4071426-1.3357143c1.214286-1.7 2.914286-1.9428571 3.885715-1.9428571 3.521428 0 5.95 2.7928571 5.95 6.4357142 0 3.6428572-2.428572 6.4357143-6.071429 6.4357143-.728571 0-2.55-.1214285-3.885714-1.9428571v1.5785714h-3.278572v-20.39999999h3.4zm-.364285 4.4928571c0 1.9428572 1.335714 3.4 3.4 3.4 1.942857 0 3.4-1.4571428 3.4-3.4 0-1.9428571-1.335715-3.4-3.4-3.4-2.064286 0-3.4 1.4571429-3.4 3.4zm15.785714 4.25-5.828572-10.3214285h4.007143l3.764286 6.9214285 3.4-6.9214285h3.885714l-9.714285 18.5785714h-3.885715zm-54.0357144-8.2571428h-8.5v3.4h4.4928571c-.7285714 2.3071428-2.4285714 3.8857143-5.5857143 3.8857143-3.5214285 0-6.0714285-2.9142857-6.0714285-6.4357143s2.4285714-6.5571429 5.95-6.5571429c1.9428571 0 3.8857142.9714286 5.1 2.55l2.7928571-1.8214285c-1.8214286-2.55000004-4.7357143-4.0071429-7.8928571-4.0071429-5.3428572 0-9.7142858 4.3714286-9.7142858 9.8357143s4.1285715 9.8357143 9.7142858 9.8357143c5.5857142 0 9.7142857-4.3714286 9.7142857-9.8357143.1214285-.3642857 0-.6071429 0-.85z" fill="#000"/><path d="m30.3571429 17h-8.5v2.4285714h5.8285714c-.85 3.6428572-3.5214286 6.6785715-7.0428572 7.8928572l-13.96428567-13.9642857c1.45714286-4.25000004 5.58571427-7.28571433 10.32142857-7.28571433 3.6428571 0 6.9214286 1.82142857 8.9857143 4.61428573l1.8214286-1.57857144c-2.4285715-3.27857143-6.3142858-5.46428572-10.8071429-5.46428572-6.3142857 0-11.65714286 4.49285715-12.99285714 10.44285716l16.02857144 16.0285714c5.8285714-1.4571428 10.3214286-6.8 10.3214286-13.1142857zm-26.71428576.1214286c0 3.4 1.33571429 6.6785714 3.88571429 9.2285714 2.54999997 2.55 5.94999997 3.8857143 9.22857147 3.8857143z" fill="#fff"/><path d="m17 0c-9.35 0-17 7.65-17 17s7.65 17 17 17 17-7.65 17-17-7.65-17-17-17zm-9.47142857 26.4714286c-2.55-2.55-3.88571429-5.95-3.88571429-9.2285715l13.23571426 13.1142858c-3.4-.1214286-6.8-1.3357143-9.34999997-3.8857143zm12.38571427 3.5214285-15.90714284-15.9071428c1.33571428-5.95000001 6.67857144-10.44285716 12.99285714-10.44285716 4.4928571 0 8.3785714 2.18571429 10.8071429 5.46428572l-1.8214286 1.57857144c-2.0642857-2.79285716-5.3428572-4.61428573-8.9857143-4.61428573-4.7357143 0-8.74285714 3.03571429-10.32142857 7.28571433l13.96428567 13.9642857c3.5214286-1.2142857 6.1928572-4.25 7.0428572-7.8928572h-5.8285714v-2.4285714h8.5c0 6.3142857-4.4928572 11.6571429-10.4428572 12.9928571z" fill="#639"/></g></svg>