<svg height="109" viewBox="0 0 111 109" width="111" xmlns="http://www.w3.org/2000/svg" xmlns:xlink="http://www.w3.org/1999/xlink"><linearGradient id="a" x1="0%" x2="100%" y1="0%" y2="100%"><stop offset="0" stop-color="#00857e"/><stop offset="1" stop-color="#017acd"/></linearGradient><g fill="none" fill-rule="evenodd" transform="translate(0 1)"><path d="m102.253027 16.2624049c-11.5894063-14.51975144-32.5846792-18.19027775-48.4146221-8.44240045-9.796906 6.03367685-15.7148195 15.71699235-17.2656553 26.06491435-1.1664569 7.7730468-7.019673 13.9424932-14.6435059 15.9154249-9.9795812 2.5843695-18.36075481 10.3678601-21.07995043 21.2721526-3.47748776 13.9491393 3.99792163 28.6198513 17.34557573 34.0212027 8.4249396 3.41038 17.3588958 2.649881 24.6763673-1.190595 7.2375511-3.796802 13.3130545 2.199251 21.5385411 3.642043 18.8682129 3.30958 44.1293676-11.0093407 45.4642276-39.585147.378896-8.1111508-1.33486-14.4767873 0-22.5916317 1.633611-9.9244727-.760195-20.5097541-7.620978-29.1059634z" fill="#fff77f" opacity=".215495"/><g fill="#ffcf3f"><path d="m50.8382821 97.3104942c-.8716563 0-1.5776922.7060359-1.5776922 1.5776922v4.7817886c0 .871083.7060359 1.577692 1.5776922 1.577692.8716564 0 1.5782653-.706609 1.5782653-1.577692v-4.7817886c0-.8716563-.7066089-1.5776922-1.5782653-1.5776922"/><path d="m98.8494678 54.0814983h-4.7817886c-.8710832 0-1.5776922.7060359-1.5776922 1.5776922 0 .8710832.706609 1.5776922 1.5776922 1.5776922h4.7817886c.8716563 0 1.5776922-.706609 1.5776922-1.5776922 0-.8716563-.7060359-1.5776922-1.5776922-1.5776922"/><path d="m7.60871309 54.0814983h-4.78178854c-.87108324 0-1.57769221.7060359-1.57769221 1.5776922 0 .8710832.70660897 1.5776922 1.57769221 1.5776922h4.78178854c.87165633 0 1.57769222-.706609 1.57769222-1.5776922 0-.8716563-.70603589-1.5776922-1.57769222-1.5776922"/><path d="m28.1993444 13.2914208c-.4361147-.7547478-1.4006102-1.0132074-2.1553579-.5776658-.7547478.4355417-1.0132074 1.4006102-.5776658 2.155358l2.3908943 4.1410839c.2922714.5060306.8229444.7891326 1.3679445.7891326.2676289 0 .5386963-.0681966.7874135-.2114669.7541747-.4355416 1.0132073-1.4006101.5776657-2.1553579z"/><path d="m73.8197504 92.3077829c-.4361147-.7541747-1.4006102-1.0137804-2.155931-.5776657-.7541747.4361147-1.0126343 1.4011832-.5770927 2.1553579l2.3903212 4.1410839c.2928445.5060306.8229445.7891327 1.3685176.7891327.2670558 0 .5386963-.0681967.7874135-.2114669.7541747-.4355417 1.0132073-1.4006102.5770926-2.1547849z"/><path d="m91.6288754 30.2871718-4.141657 2.3908943c-.7547478.4355416-1.0132073 1.4006101-.5776657 2.1553579.2922713.5060306.8223713.7891326 1.3679445.7891326.2676289 0 .5392693-.0681966.7868404-.21204l4.1416569-2.3903211c.7547478-.4361147 1.0137805-1.4006102.5782388-2.155358-.4366877-.7547478-1.4017563-1.0143535-2.1553579-.5776657"/><path d="m12.6119975 75.9075205-4.141657 2.3908942c-.75417471.4355417-1.01263427 1.4006102-.57709265 2.155358.29169827.5060306.82237135.7891326 1.36737146.7891326.26820194 0 .5392693-.0681966.78741339-.21204l4.141657-2.3903211c.7541747-.4361148 1.0132073-1.4006102.5776657-2.155358-.4361147-.7553209-1.4017563-1.0137804-2.1553579-.5776657"/><path d="m14.1896324 32.6779514-4.141657-2.3908942c-.75360162-.4361147-1.71981632-.1770821-2.15478486.5776657-.43554162.7547478-.17708205 1.7192432.57766573 2.1553579l4.14108393 2.3908943c.2487172.1432703.5192114.2114669.7868403.2114669.5455732 0 1.0762463-.283102 1.3685176-.7891326.4355416-.7547478.176509-1.7198163-.5776657-2.155358"/><path d="m93.2059945 78.2983574-4.1416569-2.3908942c-.7547478-.4355417-1.7186702-.176509-2.1547849.5776657-.4355416.7547478-.1770821 1.7192432.5776657 2.1553579l4.141657 2.3908943c.2487172.1432703.5192115.2114669.7868403.2114669.5455732 0 1.0756732-.283102 1.3685176-.7891326.4355417-.7547478.176509-1.7198163-.5782388-2.155358"/><path d="m75.632979 12.7138697c-.7547478-.4361147-1.7198164-.176509-2.1559311.5776657l-2.3903212 4.1410839c-.4355416.7547478-.177082 1.7192432.5770927 2.1553579.2487172.1432703.5197845.211467.7874134.211467.5455732 0 1.0756732-.2831021 1.3685176-.7891327l2.3903212-4.1410839c.4361147-.7547478.1770821-1.7198163-.5770926-2.1553579"/><path d="m30.012573 91.7302318c-.7541748-.4361147-1.7198164-.177082-2.155358.5776657l-2.3908943 4.1410839c-.4355416.7547478-.177082 1.7192433.5776658 2.155358.2487172.1432703.5192114.2114669.7874134.2114669.5450001 0 1.0756732-.2831021 1.3679445-.7891326l2.3908943-4.1410839c.4355416-.7547478.176509-1.7192433-.5776657-2.155358"/></g><g transform="translate(16.82)"><path d="m41.8604651 8.37209302c0 4.62474418-3.7473488 8.37209298-8.372093 8.37209298s-8.372093-3.7473488-8.372093-8.37209298 3.7473488-8.37209302 8.372093-8.37209302 8.372093 3.74734884 8.372093 8.37209302z" stroke="#434345" stroke-linecap="round" stroke-linejoin="round" stroke-width="2"/><path d="m30.3488372 25.1162791h6.2790698v-8.3720931h-6.2790698z" fill="#eef6ff"/><path d="m30.3488372 25.1162791h6.2790698v-8.3720931h-6.2790698z" stroke="#434345" stroke-linecap="round" stroke-linejoin="round" stroke-width="2"/><path d="m36.9767442 16.744186h-6.9767442c-.9627907 0-1.744186-.7796511-1.744186-1.744186v-1.744186c0-.9627907.7813953-1.7441861 1.744186-1.7441861h6.9767442c.9627907 0 1.744186.7813954 1.744186 1.7441861v1.744186c0 .9645349-.7813953 1.744186-1.744186 1.744186" fill="#eef6ff"/><path d="m36.9767442 16.744186h-6.9767442c-.9627907 0-1.744186-.7796511-1.744186-1.744186v-1.744186c0-.9627907.7813953-1.7441861 1.744186-1.7441861h6.9767442c.9627907 0 1.744186.7813954 1.744186 1.7441861v1.744186c0 .9645349-.7813953 1.744186-1.744186 1.744186z" stroke="#434345" stroke-linecap="round" stroke-linejoin="round" stroke-width="2"/><path d="m68.0232558 55.9883721c0 18.7846221-15.2270058 34.0116279-34.0116279 34.0116279s-34.0116279-15.2270058-34.0116279-34.0116279 15.2270058-34.0116279 34.0116279-34.0116279 34.0116279 15.2270058 34.0116279 34.0116279" fill="#eef6ff"/><path d="m.12924419 52.3255814c-.06292152.8467009-.12924419 1.6916982-.12924419 2.5554354 0 18.818226 15.2270058 34.0724716 34.0116279 34.0724716s34.0116279-15.2542456 34.0116279-34.0724716c0-.8637372-.0663227-1.7087345-.1292442-2.5554354-1.3094476 17.6205787-15.9599564 31.5170362-33.8823837 31.5170362-17.9241279 0-32.57293604-13.8964575-33.88238371-31.5170362z" fill="#5cbcff" opacity=".170736"/><path d="m67.8940116 58.6046512c.0629215-.846701.1292442-1.6916983.1292442-2.5554354 0-18.8182261-15.2270058-34.0724716-34.0116279-34.0724716s-34.0116279 15.2542455-34.0116279 34.0724716c0 .8637371.06632267 1.7087344.12924419 2.5554354 1.30944767-17.6205787 15.95825581-31.5170363 33.88238371-31.5170363 17.9224273 0 32.5729361 13.8964576 33.8823837 31.5170363z" fill="#fff"/><path d="m68.0232558 55.9883721c0 18.7846221-15.2270058 34.0116279-34.0116279 34.0116279s-34.0116279-15.2270058-34.0116279-34.0116279 15.2270058-34.0116279 34.0116279-34.0116279 34.0116279 15.2270058 34.0116279 34.0116279z" stroke="#434345" stroke-linecap="round" stroke-linejoin="round" stroke-width="2"/><path d="m34.0116279 81.627907c-14.1598605 0-25.63953488-11.4796744-25.63953488-25.6395349s11.47967438-25.6395349 25.63953488-25.6395349 25.6395349 11.4796744 25.6395349 25.6395349-11.4796744 25.6395349-25.6395349 25.6395349z" fill="url(#a)"/><path d="m59.5588605 57.5581395c.0427325-.6026948.0923023-1.2020037.0923023-1.8148564 0-14.024506-11.4796744-25.3944459-25.6395349-25.3944459s-25.63953488 11.3699399-25.63953488 25.3944459c0 .6128527.04956977 1.2121616.09230233 1.8148564.94182558-13.1763315 12.00613955-23.5812824 25.54723255-23.5812824s24.605407 10.4049509 25.5472326 23.5812824z" fill="#1c64ba" fill-opacity=".313784"/><g transform="translate(15.697674 37.674419)"><path d="m16.5991586 1.54891332-3.6852432 15.96710358c-.0410993.1815222-.0410993.3681818 0 .549704l3.6852432 15.9671036c.2911205 1.2638055 2.0909302 1.2638055 2.3837632 0l3.6835306-15.9671036c.0428119-.1815222.0428119-.3681818 0-.549704l-3.6835306-15.96710358c-.292833-1.2638055-2.0926427-1.2638055-2.3837632 0" fill="#fff" opacity=".346842"/><path d="m34.0316258 16.5983023-15.9653911-3.6835306c-.1815222-.0428119-.3698943-.0428119-.5514165 0l-15.96539114 3.6835306c-1.2638055.292833-1.2638055 2.0926427 0 2.3854757l15.96539114 3.6835307c.1815222.0410993.3698943.0410993.5514165 0l15.9653911-3.6835307c1.2638055-.292833 1.2638055-2.0926427 0-2.3854757" fill="#fff" opacity=".346842"/><path d="m9.5920592 11.2769619 5.5090275 8.8141015c.097611.1575476.2311839.2911205.3887315.3887315l8.8141015 5.51074c1.099408.6867019 2.3734883-.585666 1.685074-1.6867865l-5.5090275-8.8141015c-.097611-.1575475-.231184-.2911205-.3887315-.3887315l-8.8141015-5.50902745c-1.099408-.68841438-2.37348838.58395345-1.685074 1.68507395" fill="#434345"/><path d="m24.3044334 9.59120296-8.8141015 5.51073994c-.1575475.0958985-.2911205.2311839-.390444.387019l-5.50731496 8.815814c-.68841438 1.099408.58395346 2.3734884 1.68507396 1.685074l8.8141015-5.51074c.1575476-.0958985.289408-.2294714.3887315-.387019l5.5090275-8.8158139c.6884144-1.0994081-.585666-2.37177594-1.685074-1.68507404" fill="#6d6daa"/></g><path d="m46.0465116 42.9069767-16.0999227 10.0622277-10.062868 16.100563 16.0999228-10.0622276z" fill="#fff"/><path d="m46.0465116 42.9069767-16.0999227 10.0622277-10.062868 16.100563 16.0999228-10.0622276z" stroke="#434345" stroke-linecap="round" stroke-linejoin="round" stroke-width="2"/><path d="m47.0930233 41.8604651-16.7441861 10.464467 6.2786369 6.2797191z" fill="#ff9797"/><path d="m47.0930233 41.8604651-16.7441861 10.464467 6.2786369 6.2797191z" stroke="#434345" stroke-linecap="round" stroke-linejoin="round" stroke-width="2"/><path d="m36.627907 55.4651163c0 1.7332482-1.4049221 3.1395349-3.1404141 3.1395349-1.7337336 0-3.1386557-1.4062867-3.1386557-3.1395349 0-1.7332483 1.4049221-3.1395349 3.1386557-3.1395349 1.735492 0 3.1404141 1.4062866 3.1404141 3.1395349" fill="#eef6ff"/><path d="m36.627907 55.4651163c0 1.7332482-1.4049221 3.1395349-3.1404141 3.1395349-1.7337336 0-3.1386557-1.4062867-3.1386557-3.1395349 0-1.7332483 1.4049221-3.1395349 3.1386557-3.1395349 1.735492 0 3.1404141 1.4062866 3.1404141 3.1395349z" stroke="#434345" stroke-linecap="round" stroke-linejoin="round" stroke-width="2"/><path d="m8.37209302 55.5298675c0 1.4067802.14700772 2.7766283.37264747 4.1212953l48.81339901-14.0879471c-3.9316017-8.9476594-12.9896701-15.2143785-23.5451659-15.2143785-14.1606036 0-25.64088058 11.2743866-25.64088058 25.1810303z" fill="#fff" opacity=".235747"/><path d="m58.6046512 51.1035729c-.1669382-1.0088245-.3827774-1.9995755-.6711251-2.964038l-48.51492145 13.8918745c.29509267.9759637.65089015 1.928925 1.06401985 2.8523115z" fill="#fff" opacity=".099586"/><path d="m59.6511628 55.9883721c0 14.1598605-11.4796744 25.6395349-25.6395349 25.6395349s-25.63953488-11.4796744-25.63953488-25.6395349 11.47967438-25.6395349 25.63953488-25.6395349 25.6395349 11.4796744 25.6395349 25.6395349z" stroke="#434345" stroke-linecap="round" stroke-linejoin="round" stroke-width="2"/></g></g></svg>