<svg height="114" viewBox="0 0 115 114" width="115" xmlns="http://www.w3.org/2000/svg" xmlns:xlink="http://www.w3.org/1999/xlink"><linearGradient id="a" x1="26.147117%" x2="77.518156%" y1="0%" y2="100%"><stop offset="0" stop-color="#ff4b5f"/><stop offset="1" stop-color="#ffef00"/></linearGradient><mask id="b" fill="#fff"><path d="m29.8943077 13.3545641c-2.3024103 3.762-6.08 6.3148205-10.3135898 7.5561538-5.664923 1.6612821-10.82805123 5.1757949-14.48969226 10.3798462-6.71917949 9.5467692-6.39764102 21.9328205-.114 31.0002051 2.23615385 3.227077 3.32451282 7.1508205 3.10723077 11.0726154-.19292308 3.4911282.16271795 7.0884616 1.1448718 10.691641 4.30179489 15.7846154 19.75999999 26.2170774 36.01035899 24.3190254 5.3930769-.63041 10.3028718-2.488513 14.5062564-5.248872 4.5668205-3.002 10.1518461-3.8302046 15.3938974-2.281948 13.8933846 4.105948 30.550051-3.9987695 33.213949-23.8591284.311795-2.3296923-.233846-4.8279488-1.120513-7.1586154-1.641795-4.3105641-1.491744-9.0401026.173436-13.3428718 2.724308-7.0377949 2.343333-15.2019487-1.749949-22.23-3.601231-6.1862051-9.3850255-10.3096923-15.8099486-11.9631795-6.8838462-1.7713846-12.7660513-6.1150769-17.214-11.6601538-4.1234872-5.14364107-10.1830257-8.74097441-17.2461539-9.60035902-1.0737436-.13056411-2.1406666-.19389744-3.1958974-.19389744-9.2642051-.00097436-17.6407692 4.91466667-22.2962564 12.51953846" fill="#fff" fill-rule="evenodd"/></mask><mask id="c" fill="#fff"><path d="m29.8943077 13.3545641c-2.3024103 3.762-6.08 6.3148205-10.3135898 7.5561538-5.664923 1.6612821-10.82805123 5.1757949-14.48969226 10.3798462-6.71917949 9.5467692-6.39764102 21.9328205-.114 31.0002051 2.23615385 3.227077 3.32451282 7.1508205 3.10723077 11.0726154-.19292308 3.4911282.16271795 7.0884616 1.1448718 10.691641 4.30179489 15.7846154 19.75999999 26.2170774 36.01035899 24.3190254 5.3930769-.63041 10.3028718-2.488513 14.5062564-5.248872 4.5668205-3.002 10.1518461-3.8302046 15.3938974-2.281948 13.8933846 4.105948 30.550051-3.9987695 33.213949-23.8591284.311795-2.3296923-.233846-4.8279488-1.120513-7.1586154-1.641795-4.3105641-1.491744-9.0401026.173436-13.3428718 2.724308-7.0377949 2.343333-15.2019487-1.749949-22.23-3.601231-6.1862051-9.3850255-10.3096923-15.8099486-11.9631795-6.8838462-1.7713846-12.7660513-6.1150769-17.214-11.6601538-4.1234872-5.14364107-10.1830257-8.74097441-17.2461539-9.60035902-1.0737436-.13056411-2.1406666-.19389744-3.1958974-.19389744-9.2642051-.00097436-17.6407692 4.91466667-22.2962564 12.51953846" fill="#fff" fill-rule="evenodd"/></mask><mask id="d" fill="#fff"><path d="m29.8943077 13.3545641c-2.3024103 3.762-6.08 6.3148205-10.3135898 7.5561538-5.664923 1.6612821-10.82805123 5.1757949-14.48969226 10.3798462-6.71917949 9.5467692-6.39764102 21.9328205-.114 31.0002051 2.23615385 3.227077 3.32451282 7.1508205 3.10723077 11.0726154-.19292308 3.4911282.16271795 7.0884616 1.1448718 10.691641 4.30179489 15.7846154 19.75999999 26.2170774 36.01035899 24.3190254 5.3930769-.63041 10.3028718-2.488513 14.5062564-5.248872 4.5668205-3.002 10.1518461-3.8302046 15.3938974-2.281948 13.8933846 4.105948 30.550051-3.9987695 33.213949-23.8591284.311795-2.3296923-.233846-4.8279488-1.120513-7.1586154-1.641795-4.3105641-1.491744-9.0401026.173436-13.3428718 2.724308-7.0377949 2.343333-15.2019487-1.749949-22.23-3.601231-6.1862051-9.3850255-10.3096923-15.8099486-11.9631795-6.8838462-1.7713846-12.7660513-6.1150769-17.214-11.6601538-4.1234872-5.14364107-10.1830257-8.74097441-17.2461539-9.60035902-1.0737436-.13056411-2.1406666-.19389744-3.1958974-.19389744-9.2642051-.00097436-17.6407692 4.91466667-22.2962564 12.51953846" fill="#fff" fill-rule="evenodd"/></mask><mask id="e" fill="#fff"><path d="m29.8943077 13.3545641c-2.3024103 3.762-6.08 6.3148205-10.3135898 7.5561538-5.664923 1.6612821-10.82805123 5.1757949-14.48969226 10.3798462-6.71917949 9.5467692-6.39764102 21.9328205-.114 31.0002051 2.23615385 3.227077 3.32451282 7.1508205 3.10723077 11.0726154-.19292308 3.4911282.16271795 7.0884616 1.1448718 10.691641 4.30179489 15.7846154 19.75999999 26.2170774 36.01035899 24.3190254 5.3930769-.63041 10.3028718-2.488513 14.5062564-5.248872 4.5668205-3.002 10.1518461-3.8302046 15.3938974-2.281948 13.8933846 4.105948 30.550051-3.9987695 33.213949-23.8591284.311795-2.3296923-.233846-4.8279488-1.120513-7.1586154-1.641795-4.3105641-1.491744-9.0401026.173436-13.3428718 2.724308-7.0377949 2.343333-15.2019487-1.749949-22.23-3.601231-6.1862051-9.3850255-10.3096923-15.8099486-11.9631795-6.8838462-1.7713846-12.7660513-6.1150769-17.214-11.6601538-4.1234872-5.14364107-10.1830257-8.74097441-17.2461539-9.60035902-1.0737436-.13056411-2.1406666-.19389744-3.1958974-.19389744-9.2642051-.00097436-17.6407692 4.91466667-22.2962564 12.51953846" fill="#fff" fill-rule="evenodd"/></mask><mask id="f" fill="#fff"><path d="m29.8943077 13.3545641c-2.3024103 3.762-6.08 6.3148205-10.3135898 7.5561538-5.664923 1.6612821-10.82805123 5.1757949-14.48969226 10.3798462-6.71917949 9.5467692-6.39764102 21.9328205-.114 31.0002051 2.23615385 3.227077 3.32451282 7.1508205 3.10723077 11.0726154-.19292308 3.4911282.16271795 7.0884616 1.1448718 10.691641 4.30179489 15.7846154 19.75999999 26.2170774 36.01035899 24.3190254 5.3930769-.63041 10.3028718-2.488513 14.5062564-5.248872 4.5668205-3.002 10.1518461-3.8302046 15.3938974-2.281948 13.8933846 4.105948 30.550051-3.9987695 33.213949-23.8591284.311795-2.3296923-.233846-4.8279488-1.120513-7.1586154-1.641795-4.3105641-1.491744-9.0401026.173436-13.3428718 2.724308-7.0377949 2.343333-15.2019487-1.749949-22.23-3.601231-6.1862051-9.3850255-10.3096923-15.8099486-11.9631795-6.8838462-1.7713846-12.7660513-6.1150769-17.214-11.6601538-4.1234872-5.14364107-10.1830257-8.74097441-17.2461539-9.60035902-1.0737436-.13056411-2.1406666-.19389744-3.1958974-.19389744-9.2642051-.00097436-17.6407692 4.91466667-22.2962564 12.51953846" fill="#fff" fill-rule="evenodd"/></mask><mask id="g" fill="#fff"><path d="m29.8943077 13.3545641c-2.3024103 3.762-6.08 6.3148205-10.3135898 7.5561538-5.664923 1.6612821-10.82805123 5.1757949-14.48969226 10.3798462-6.71917949 9.5467692-6.39764102 21.9328205-.114 31.0002051 2.23615385 3.227077 3.32451282 7.1508205 3.10723077 11.0726154-.19292308 3.4911282.16271795 7.0884616 1.1448718 10.691641 4.30179489 15.7846154 19.75999999 26.2170774 36.01035899 24.3190254 5.3930769-.63041 10.3028718-2.488513 14.5062564-5.248872 4.5668205-3.002 10.1518461-3.8302046 15.3938974-2.281948 13.8933846 4.105948 30.550051-3.9987695 33.213949-23.8591284.311795-2.3296923-.233846-4.8279488-1.120513-7.1586154-1.641795-4.3105641-1.491744-9.0401026.173436-13.3428718 2.724308-7.0377949 2.343333-15.2019487-1.749949-22.23-3.601231-6.1862051-9.3850255-10.3096923-15.8099486-11.9631795-6.8838462-1.7713846-12.7660513-6.1150769-17.214-11.6601538-4.1234872-5.14364107-10.1830257-8.74097441-17.2461539-9.60035902-1.0737436-.13056411-2.1406666-.19389744-3.1958974-.19389744-9.2642051-.00097436-17.6407692 4.91466667-22.2962564 12.51953846" fill="#fff" fill-rule="evenodd"/></mask><mask id="h" fill="#fff"><path d="m29.8943077 13.3545641c-2.3024103 3.762-6.08 6.3148205-10.3135898 7.5561538-5.664923 1.6612821-10.82805123 5.1757949-14.48969226 10.3798462-6.71917949 9.5467692-6.39764102 21.9328205-.114 31.0002051 2.23615385 3.227077 3.32451282 7.1508205 3.10723077 11.0726154-.19292308 3.4911282.16271795 7.0884616 1.1448718 10.691641 4.30179489 15.7846154 19.75999999 26.2170774 36.01035899 24.3190254 5.3930769-.63041 10.3028718-2.488513 14.5062564-5.248872 4.5668205-3.002 10.1518461-3.8302046 15.3938974-2.281948 13.8933846 4.105948 30.550051-3.9987695 33.213949-23.8591284.311795-2.3296923-.233846-4.8279488-1.120513-7.1586154-1.641795-4.3105641-1.491744-9.0401026.173436-13.3428718 2.724308-7.0377949 2.343333-15.2019487-1.749949-22.23-3.601231-6.1862051-9.3850255-10.3096923-15.8099486-11.9631795-6.8838462-1.7713846-12.7660513-6.1150769-17.214-11.6601538-4.1234872-5.14364107-10.1830257-8.74097441-17.2461539-9.60035902-1.0737436-.13056411-2.1406666-.19389744-3.1958974-.19389744-9.2642051-.00097436-17.6407692 4.91466667-22.2962564 12.51953846z" fill="#fff" fill-rule="evenodd"/></mask><g fill="none" fill-rule="evenodd"><path d="m8.01342051 34.3263744c-6.71917948 9.5467692-6.39666666 21.9328205-.11302564 30.9992307 2.23615383 3.2280513 3.32451283 7.1517949 3.10723073 11.0735898-.192923 3.4911282.1617436 7.0894359 1.1438975 10.691641 4.3027692 15.7846151 19.7609743 26.2180511 36.0113333 24.3190261 5.3930769-.629436 10.3028718-2.487539 14.5062564-5.247898 4.5668205-3.002 10.1518462-3.831179 15.3938975-2.281949 13.8924102 4.105949 30.5490767-3.9997432 33.2129747-23.8601022.312769-2.3287179-.233847-4.8279487-1.120513-7.157641-1.640821-4.3115385-1.490769-9.0410769.17441-13.3438462 2.724308-7.0368205 2.342359-15.2009743-1.749949-22.23-3.60123-6.1862051-9.3859997-10.3087179-15.8099484-11.9622051-6.8838461-1.772359-12.7660513-6.1160513-17.214-11.6611282-4.1244615-5.14266666-10.184-8.74097435-17.2461538-9.60035897-10.5026154-1.27835897-20.3066154 3.85456411-25.4921539 12.32564107-2.3024102 3.762-6.08 6.3148205-10.3135897 7.5571282-5.6649231 1.6603077-10.8280513 5.1748205-14.49066669 10.3788718" fill="#efedfc"/><path d="m116.480328 127.862205c0 34.317898-27.8208716 62.137795-62.1368203 62.137795-34.3178974 0-62.13876924-27.819897-62.13876924-62.137795 0-34.3178973 27.82087184-62.1368204 62.13876924-62.1368204 34.3159487 0 62.1368203 27.8189231 62.1368203 62.1368204" fill="#ff99b1" mask="url(#b)" transform="translate(2.923077 3.036103)"/><path d="m-2.81014872 132.847221c0-34.3178979 27.81989742-62.1377954 62.13682052-62.1377954 15.8908205 0 30.3805128 5.9718462 41.3683592 15.7855898-11.3795387-12.7416923-27.9251284-20.7704103-46.3522054-20.7704103-34.316923 0-62.13779483 27.8198975-62.13779483 62.1377949 0 18.427077 8.02871795 34.972667 20.76943593 46.352205-9.81179491-10.986872-15.78461542-25.476564-15.78461542-41.367384" fill="#fff" mask="url(#c)" transform="translate(2.923077 3.036103)"/><path d="m93.819759 79.8759026c6.825385 9.9764615 10.824154 22.0400004 10.824154 35.0408714 0 16.570923-6.4863079 31.626718-17.0581027 42.766564-11.3230257 11.932-27.3317436 19.371231-45.078718 19.371231-14.9924615 0-28.7426154-5.310256-39.4771282-14.150615 11.1924615 16.357538 29.995641 27.095949 51.3126667 27.095949 34.316923 0 62.1377952-27.819898 62.1377952-62.137795 0-19.325436-8.823795-36.5901029-22.660667-47.9862054" fill="#750000" mask="url(#d)" transform="translate(2.923077 3.036103)"/><g fill="#fedbc1"><path d="m34.2306923 107.749877c21.2751282-21.2741539 45.7714872-32.3496924 59.2234872-27.8442565-19.0311795-13.2805128-49.8823077-7.3554359-72.1532308 14.9145128-22.2699487 22.2718977-28.19502562 53.1220517-14.91548716 72.1542047-4.5054359-13.452 6.57010256-37.949333 27.84523076-59.224461" mask="url(#e)" transform="translate(2.923077 3.036103)"/><path d="m60.8076974 134.326785c-24.2664102 24.26641-46.8325641 41.043897-50.4026153 37.473846-3.57102569-3.571026 13.2064615-26.136205 37.4728717-50.40359 24.2664103-24.2654359 46.8325641-41.0429231 50.4026154-37.4728718 3.5700518 3.5710257-13.2074359 26.1371798-37.4728718 50.4026158" mask="url(#f)" transform="translate(2.923077 3.036103)"/><path d="m74.7037128 147.946862c-21.2751282 21.275128-45.7714872 32.349692-59.2234872 27.84523 19.0311795 13.279539 49.8823077 7.354462 72.1532308-14.915487 22.2699486-22.270923 28.1950256-53.122051 14.9154876-72.1532306 4.505435 13.4510256-6.570103 37.9483586-27.8452312 59.2234876" mask="url(#g)" transform="translate(2.923077 3.036103)"/></g><path d="m116.480328 127.862205c0 34.317898-27.8208716 62.137795-62.1368203 62.137795-34.3178974 0-62.13876924-27.819897-62.13876924-62.137795 0-34.3178973 27.82087184-62.1368204 62.13876924-62.1368204 34.3159487 0 62.1368203 27.8189231 62.1368203 62.1368204z" mask="url(#h)" stroke="#6d6daa" stroke-linecap="round" stroke-linejoin="round" stroke-width="2" transform="translate(2.923077 3.036103)"/><g transform="translate(0 .113026)"><path d="m48.6729333 65.6582513c-.7833846 6.7211282.8905641 13.5708718 4.3144616 17.6631795l4.9185641 5.8773333 4.9175897-5.8773333c3.4248718-4.0923077 5.0978462-10.9420513 4.3144616-17.6631795l-1.8337436-12.6004103h-14.6153846z" fill="url(#a)"/><path d="m52.8986308 63.085359c-.442359 1.8805128-.6937436 4.0357948-.6937436 6.3274872 0 7.3076923 5.7009743 13.2308205 5.7009743 13.2308205s5.7-5.9231282 5.7-13.2308205c0-2.2916924-.2513846-4.4469744-.6937436-6.3274872l-1.5053846-7.5912308h-6.8205128z" fill="#fff27d"/><path d="m55.2974051 63.085359c-.2299487.9792307-.3614872 2.1016923-.3614872 3.2962564 0 3.8068205 2.9698462 6.891641 2.9698462 6.891641s2.9698462-3.0848205 2.9698462-6.891641c0-1.1945641-.1315385-2.3170257-.3614872-3.2962564l-1.0552308-5.3628718h-2.9230769z" fill="#fff"/><path d="m46.2208615 52.418759-.5553846-10.0826667c-4.7207692 2.2478462-7.8513846 6.1881539-8.1524615 10.6370769l-.5534359 8.1933846c-.0954872 1.4050257 2.3637949 1.9214359 3.1627692.6586667 1.9682051-3.1062564 4.256-5.9630769 6.978359-7.7773333-.5592821-.504718-.8798462-1.0532821-.8798462-1.6291282" fill="#c9c1f5"/><path d="m39.5040205 62.3403641.466718-6.9091795c.2504102-3.6898974 2.4661025-7.0144102 5.9016923-9.3285128l-.2075385-3.7658974c-4.7197949 2.2468718-7.8494359 6.1871794-8.1514872 10.6370769l-.5534359 8.1924102c-.0769743 1.1380513 1.5092821 1.6739488 2.5440513 1.1741026" fill="#fff"/><path d="m78.2976359 52.973559c-.3010769-4.4489231-3.430718-8.3892308-8.1514872-10.6370769l-.5553846 10.0826666c-.0009744.5748718-.3215385 1.1244103-.8808205 1.6291282 2.722359 1.8132821 5.0111282 4.6701026 6.978359 7.7773334.7999487 1.2627692 3.2582564.7463589 3.1627692-.6596411z" fill="#c9c1f5"/><path d="m70.1459538 42.3364821-.2182564 3.9617435c3.5369231 2.318 5.8198462 5.6961026 6.0741539 9.4503077l.4501538 6.6636411c1.0318462.382923 2.4729231-.1617436 2.3998462-1.2462052l-.5544103-8.1924102c-.3001025-4.4489231-3.4297436-8.3892308-8.1514872-10.6370769" fill="#fff"/><path d="m55.5781179 47.8467744c-5.4671282-.4326154-9.844923-2.2001026-9.844923-4.3164103l-.0019487-.0009744.4891282 8.889077c0 2.103641 4.155641 3.8584615 9.3577435 4.3056923z" fill="#9eb2cc"/><path d="m60.2329231 56.7244513c5.2021025-.4472308 9.3577436-2.2030257 9.3577436-4.3056923l.4891282-8.8900513-.0019487.0019487c0 2.1163077-4.3777949 3.8828205-9.8449231 4.3164103z" fill="#9eb2cc"/><path d="m60.2329231 56.7244513c5.2021025-.4472308 9.3577436-2.2030257 9.3577436-4.3056923l.4891282-8.8900513-.0019487.0019487c0 2.1163077-4.3777949 3.8828205-9.8449231 4.3164103z" fill="#9eb2cc"/><path d="m57.9055692.86152821c-6.6577948 5.66492307-11.096 14.06487179-12.3616923 23.39825639-.4131282 3.0516923-.5358974 6.1433333-.366359 9.2252308l.5534359 10.0446667.0029231.0009743c0 2.1163077 4.3768205 3.8828205 9.8439487 4.3164103v-3.924718c0-1.2851795 1.0425641-2.3267692 2.3277436-2.3267692s2.3277436 1.0415897 2.3277436 2.3267692v3.924718c5.4671282-.4335898 9.8439487-2.2001026 9.8439487-4.3164103l.0029231-.0019487.5534359-10.0436923c.1695385-3.0818975.0467692-6.1735385-.366359-9.2252308-1.2656923-9.3333846-5.7038974-17.73333332-12.3616923-23.39825639" fill="#eef6ff"/><path d="m57.9055692 12.6461077c3.3206154 0 6.2232308-.8720513 7.8085129-2.1689231-2.049077-3.68210255-4.6798462-6.95302563-7.8085129-9.6159487-3.1286666 2.66292307-5.7594359 5.93384615-7.8085128 9.6169231 1.5852821 1.2958974 4.4878974 2.1679487 7.8085128 2.1679487" fill="#c9c1f5"/><path d="m57.7999487 1.91198462c.0341026-.35953847.0691795-.7103077.1052308-1.05035898l-.0077949.00876923c-.2338461.33615385-.4618461.68497436-.6859487 1.04158975-.1052308.16758974-.2055897.34394871-.3088718.51446153-.1159487.1948718-.2338462.38584616-.3478462.58558975-.1383589.24164102-.2718461.49302564-.4053333.74246154-.0730769.13348718-.1461538.26405128-.2163077.39948718-.1549231.29815384-.3049743.60507692-.456.91297435-.0428718.09061539-.0886666.1783077-.1315384.26892308-.1646667.34589744-.3244616.7005641-.4823077 1.05912821-.0224103.05358974-.0477436.10717948-.0711282.16076923-.1685641.38682051-.3312821.78143589-.4901026 1.18189743-.0107179.0263077-.0214359.05164103-.0321538.07892308-.1666154.41994872-.328359.84866667-.4852308 1.28225641-.0019487.00682051-.0048718.01266667-.0068205.01948718-.1597949.44430769-.314718.89348721-.4647693 1.35143591v.0009743c-.152.4628206-.2776923.9538975-.4170256 1.4284103 1.2276923.3985128 2.6580513.6537949 4.2072821.7200513.0311794-.7229744.0613846-1.4527692.0964615-2.1474872v-.0019487c.0224102-.4579487.0467692-.90712822.0711282-1.35143591.0009744-.00682051.0009744-.01266667.0009744-.01948718.0243589-.43358974.0496923-.86230769.0750256-1.28225641.0019487-.02728205.0029231-.05261538.0048718-.07892308.024359-.40046154.0496923-.79507692.0750256-1.18189743.0038975-.05358975.0077949-.10717949.0116923-.16076923.0233847-.35856411.048718-.71323077.0740513-1.05912821.0068205-.09061538.013641-.17830769.0204616-.26892308.0224102-.30789743.0457948-.61482051.0701538-.91297435.010718-.1354359.0214359-.266.0331282-.39948718.0204615-.2494359.0409231-.50082052.062359-.74246154.0175384-.19974359.0360513-.39071795.0535897-.58558975.0155898-.17051282.0311795-.34687179.0477436-.51446153" fill="#fff"/><path d="m57.9055692.86152821c0-.00194872.0009744-.0048718.0009744-.00682052-.0038974.0048718-.0068205.00974359-.0097436.01558975z" fill="#fff"/><path d="m52.8958051 11.8991641c-1.1214872 3.7941538-1.9107179 7.955641-2.2614872 12.3538974-.2435897 3.0516923-.3166666 6.1433334-.2163076 9.2252308l.3254359 10.0446667.1149743 3.5534872c1.3991795.3673333 3.0049231.6343076 4.7197949.7707179l1.2267179-4.3242051-.0506666-10.0446667c-.0155898-3.0818974-.0038975-6.1735385.0331282-9.2252308.0506666-4.1205641.1607692-8.0335897.3156923-11.6338461-1.5482564-.0662564-2.9795898-.3215385-4.2072821-.7200513" fill="#fff"/><path d="m55.5781179 47.8467744c-1.7148717-.1364103-3.3206153-.4024103-4.7197948-.770718l.1734359 5.3365641c0 1.875641 1.951641 3.4696923 4.5463589 4.1098462z" fill="#fff"/><path d="m70.2677487 24.2527692c-.7453846-5.4934359-2.5966666-10.6575384-5.344359-15.13569228-.002923-.00584615-.0068205-.0116923-.0097435-.0165641-.2679488-.4345641-.542718-.86328205-.8272308-1.28420513-.0165641-.02630769-.0350769-.05261538-.051641-.07794872-.2718462-.40046153-.5495385-.79507692-.836-1.18287179-.0389744-.05358974-.0808718-.10620513-.1208206-.15979487-.2669743-.3585641-.5397948-.71323077-.8204102-1.06010257-.0721026-.09061538-.1481026-.17830769-.2221539-.26794871-.255282-.3088718-.5115384-.61482052-.7746153-.91394872-.1188718-.13446154-.2426154-.26210257-.3634359-.39558975-.2299488-.25138461-.4579488-.50374359-.694718-.74830769-.1880513-.19389743-.3838974-.38-.5768205-.56902564-.1792821-.17635897-.355641-.35758974-.5397949-.53005128-.3848718-.36148718-.7775384-.71420513-1.1799487-1.05620513.2367692.342.4676923.69471795.6937436 1.05620513.1091282.17246154.2124103.35369231.3186154.53005128.1130256.18902564.228.37512821.3390769.56902564.1393333.2445641.2728205.49692308.4082564.74830769.0711282.13348718.1442051.26112821.2133846.39558975.1558975.2991282.3059488.60507692.4569744.91394872.0428718.08964102.0867179.17733333.1305641.26794871.1646667.3468718.3244615.70153847.483282 1.06010257.0224103.05358974.0467693.10620513.0701539.15979487.1685641.38779487.3322564.78241026.4920513 1.18287179.0087692.02533334.0204615.05164103.0302051.07794872.1675897.42092308.3293333.84964103.4862051 1.28420513.0019487.0048718.0038975.01071795.0058462.0165641 1.6174359 4.47815388 2.7057949 9.64225638 3.1442564 15.13569228.2426154 3.0516923.3156923 6.1443077.2153333 9.2262052l-.3254359 10.0427179-.2874359 8.8900513c0 2.103641-2.445641 3.8584615-5.5051282 4.3056923h.9577949c5.2021026-.4472308 9.3577436-2.2020513 9.3577436-4.3056923l.4901026-8.8900513.5524615-10.0427179c.1705128-3.0818975.0477436-6.1745129-.366359-9.2262052" fill="#2c4b75" fill-opacity=".298459"/><path d="m61.1825333 22.0138872c1.8093846 1.8093846 1.810359 4.7441538 0 6.5554872-1.8093846 1.8093846-4.7441538 1.8093846-6.5545128 0-1.8093846-1.810359-1.8093846-4.7461026 0-6.5554872 1.810359-1.8093846 4.7451282-1.8093846 6.5545128 0" fill="#96d7ff"/><path d="m57.0862308 24.4716103c1.3748205-1.3738462 3.395641-1.6983077 5.0822564-.9860513-.2260513-.5339487-.5505128-1.0357436-.9860513-1.4712821-1.8093846-1.810359-4.7441538-1.810359-6.5535385 0-1.8103589 1.8093846-1.8103589 4.7451282 0 6.5545128.4345641.4345641.936359.76 1.4712821.9860513-.7132308-1.6875897-.3887692-3.7084102.9860513-5.0832307" fill="#2c4b75" fill-opacity=".228693"/><path d="m54.6285077 22.0138872c-1.8093846 1.8093846-1.8093846 4.7451282 0 6.5554872 1.0133333 1.0133333 2.3764615 1.4371794 3.7015897 1.3163589v-9.1891795c-1.3251282-.1208205-2.6882564.304-3.7015897 1.3173334" fill="#fff"/><g stroke-linecap="round" stroke-linejoin="round" stroke-width="2"><path d="m48.6729333 65.6582513c-.7833846 6.7211282.8905641 13.5708718 4.3144616 17.6631795l4.9185641 5.8773333 4.9175897-5.8773333c3.4248718-4.0923077 5.0978462-10.9420513 4.3144616-17.6631795" stroke="#6d6daa"/><path d="m46.2208615 52.418759-.5553846-10.0826667c-4.7207692 2.2478462-7.8513846 6.1881539-8.1524615 10.6370769l-.5534359 8.1933846c-.0954872 1.4050257 2.3637949 1.9214359 3.1627692.6586667 1.9682051-3.1062564 4.256-5.9630769 6.978359-7.7773333-.5592821-.504718-.8798462-1.0532821-.8798462-1.6291282z" stroke="#434345"/><path d="m78.2976359 52.973559c-.3010769-4.4489231-3.430718-8.3892308-8.1514872-10.6370769l-.5553846 10.0826666c-.0009744.5748718-.3215385 1.1244103-.8808205 1.6291282 2.722359 1.8132821 5.0111282 4.6701026 6.978359 7.7773334.7999487 1.2627692 3.2582564.7463589 3.1627692-.6596411z" stroke="#434345"/><path d="m55.5781179 47.8467744c-5.4671282-.4326154-9.844923-2.2001026-9.844923-4.3164103l-.0019487-.0009744.4891282 8.889077c0 2.103641 4.155641 3.8584615 9.3577435 4.3056923" stroke="#434345"/><path d="m60.2329231 56.7244513c5.2021025-.4472308 9.3577436-2.2030257 9.3577436-4.3056923l.4891282-8.8900513-.0019487.0019487c0 2.1163077-4.3777949 3.8828205-9.8449231 4.3164103" stroke="#434345"/><path d="m60.2329231 47.8467744c5.4671282-.4326154 9.8449231-2.2001026 9.8449231-4.3164103l.0019487-.0019487.5544102-10.042718c.1695385-3.0818974.0467693-6.1745128-.3673333-9.2262051-1.2656923-9.3333846-5.7038974-17.73235897-12.3616923-23.3982564-6.6577949 5.66589743-11.0950257 14.0648718-12.360718 23.3982564-.4141025 3.0516923-.5368718 6.1443077-.3663589 9.2262051l.5524615 10.0436923.0029231.0009744c0 2.1163077 4.3768205 3.8837949 9.8449231 4.3164103" stroke="#434345"/><path d="m57.9055692 12.6461077c3.3206154 0 6.2232308-.8720513 7.8085129-2.1689231-2.049077-3.68210255-4.6798462-6.95302563-7.8085129-9.6159487-3.1286666 2.66292307-5.7594359 5.93384615-7.8085128 9.6169231 1.5852821 1.2958974 4.4878974 2.1679487 7.8085128 2.1679487z" stroke="#434345"/><path d="m61.1825333 22.0138872c1.8093846 1.8093846 1.810359 4.7441538 0 6.5554872-1.8093846 1.8093846-4.7441538 1.8093846-6.5545128 0-1.8093846-1.810359-1.8093846-4.7461026 0-6.5554872 1.810359-1.8093846 4.7451282-1.8093846 6.5545128 0z" stroke="#434345"/></g><path d="m57.9968667 41.0995333c-1.8834359 0-3.4102564 1.5258462-3.4102564 3.4102564v15.0616411c0 1.8834359 1.5268205 3.4102564 3.4102564 3.4102564s3.4102564-1.5268205 3.4102564-3.4102564v-15.0616411c0-1.8844102-1.5268205-3.4102564-3.4102564-3.4102564" fill="#c9c1f5"/><path d="m57.9968667 41.0995333c-1.8844103 0-3.4102564 1.5258462-3.4102564 3.4092821v4.4995897c0-1.8834359 1.5268205-3.4102564 3.4102564-3.4102564s3.4102564 1.5268205 3.4102564 3.4102564v-4.4986154c0-1.8844102-1.5268205-3.4102564-3.4102564-3.4102564" fill="#fff"/><path d="m57.9968667 41.0995333c-1.8834359 0-3.4102564 1.5258462-3.4102564 3.4102564v15.0616411c0 1.8834359 1.5268205 3.4102564 3.4102564 3.4102564s3.4102564-1.5268205 3.4102564-3.4102564v-15.0616411c0-1.8844102-1.5268205-3.4102564-3.4102564-3.4102564z" stroke="#434345" stroke-linecap="round" stroke-linejoin="round" stroke-width="2"/><path d="m6.44908718 72.2389744c.52517949 1.5745641 1.5745641 2.6229743 3.14815385 3.1481538 1.57456407.5251795 1.57456407 1.0493846 0 1.5745641-1.57358975.5242051-2.62297436 1.5735898-3.14815385 3.1471795-.52420513 1.5735897-1.04841026 1.5735897-1.57358974 0-.52420513-1.5735897-1.57358975-2.6229744-3.14815385-3.1471795-1.57358974-.5251795-1.57358974-1.0493846 0-1.5745641 1.5745641-.5251795 2.62394872-1.5735897 3.14815385-3.1481538.52517948-1.5735898 1.04938461-1.5735898 1.57358974 0" fill="#97c1ff"/><path d="m16.6065846 10.835359c.404359 1.2150256 1.2140513 2.0237436 2.4281026 2.4290769 1.2140513.404359 1.2140513.8096923 0 1.2140513s-2.0237436 1.2140513-2.4281026 2.4281025c-.404359 1.2150257-.8096923 1.2150257-1.2140513 0-.4053333-1.2140512-1.2140512-2.0237435-2.4281025-2.4281025s-1.2140513-.8096923 0-1.2140513c1.2140513-.4053333 2.0227692-1.2140513 2.4281025-2.4290769.404359-1.21405131.8096923-1.21405131 1.2140513 0" fill="#ffc245"/><path d="m110.487631 53.6824051c.499846 1.4995385 1.498564 2.4982564 2.997128 2.9981026 1.499538.4998461 1.499538.9996923 0 1.4995385-1.498564.4998461-2.497282 1.4985641-2.997128 2.9971282-.499846 1.4995384-.999693 1.4995384-1.499539 0-.499846-1.4985641-1.498564-2.4972821-2.997128-2.9971282-1.499538-.4998462-1.499538-.9996924 0-1.4995385 1.498564-.4998462 2.497282-1.4985641 2.997128-2.9981026.499846-1.4985641.999693-1.4985641 1.499539 0" fill="#ffcf3f"/><path d="m89.4513179 31.9534205c.3994872 1.1984616 1.1984616 1.9984103 2.3978975 2.3988718 1.1994359.3994872 1.1994359.7989744 0 1.1984615-1.1994359.4004616-1.9984103 1.1994359-2.3978975 2.3978975-.3994871 1.2004102-.7989743 1.2004102-1.1984615 0-.4014359-1.1984616-1.2004102-1.9974359-2.3988718-2.3978975-1.1994359-.3994871-1.1994359-.7989743 0-1.1984615 1.1984616-.4004615 1.9974359-1.2004102 2.3988718-2.3988718.3994872-1.1984615.7989744-1.1984615 1.1984615 0" fill="#ff99b1"/><path d="m104.128574 106.98481c.349795 1.049385 1.049385 1.748975 2.09877 2.098769 1.049384.35077 1.049384.69959 0 1.049385-1.049385.349795-1.748975 1.049385-2.09877 2.098769-.34882 1.049385-.699589 1.049385-1.04841 0-.350769-1.049384-1.049385-1.748974-2.098769-2.098769-1.0503591-.349795-1.0503591-.698615 0-1.049385 1.049384-.349794 1.748-1.049384 2.098769-2.098769.348821-1.04841.69959-1.04841 1.04841 0" fill="#ff99b1"/><g transform="translate(19.487179 7.794872)"><path d="m87.7148154 6.289c0 3.22805128-2.6181026 5.8461538-5.8461539 5.8461538-3.2280512 0-5.8461538-2.61810252-5.8461538-5.8461538s2.6181026-5.84615385 5.8461538-5.84615385c3.2280513 0 5.8461539 2.61810257 5.8461539 5.84615385" fill="#c9c1f5"/><path d="m81.8686615 3.95014872c2.6268718 0 4.823077 1.74507692 5.5606667 4.13030769.1841539-.56415385.2854872-1.16533333.2854872-1.79184615 0-3.22805129-2.6181026-5.84615385-5.8461539-5.84615385-3.2280512 0-5.8461538 2.61810256-5.8461538 5.84615385 0 .62651282.1013333 1.2276923.2854872 1.79184615.7366154-2.38523077 2.9337948-4.13030769 5.5606666-4.13030769" fill="#fff"/><path d="m87.7148154 6.289c0 3.22805128-2.6181026 5.8461538-5.8461539 5.8461538-3.2280512 0-5.8461538-2.61810252-5.8461538-5.8461538s2.6181026-5.84615385 5.8461538-5.84615385c3.2280513 0 5.8461539 2.61810257 5.8461539 5.84615385z" stroke="#6d6daa" stroke-linecap="round" stroke-linejoin="round" stroke-width="2"/><path d="m6.84302051 37.371441c0 1.8834359-1.52682051 3.4102564-3.41025641 3.4102564-1.88343589 0-3.41025641-1.5268205-3.41025641-3.4102564 0-1.8844102 1.52682052-3.4102564 3.41025641-3.4102564 1.8834359 0 3.41025641 1.5258462 3.41025641 3.4102564" fill="#ff99b1"/><path d="m3.4327641 36.0069487c1.53266667 0 2.81394872 1.0182051 3.24364103 2.4095898.10717949-.3293334.16661538-.681077.16661538-1.0454872 0-1.8834359-1.52682051-3.4102564-3.41025641-3.4102564-1.88343589 0-3.41025641 1.5268205-3.41025641 3.4102564 0 .3644102.0594359.7161538.16661539 1.0454872.42969231-1.3913847 1.71097436-2.4095898 3.24364102-2.4095898" fill="#fff"/><path d="m6.84302051 37.371441c0 1.8834359-1.52682051 3.4102564-3.41025641 3.4102564-1.88343589 0-3.41025641-1.5268205-3.41025641-3.4102564 0-1.8844102 1.52682052-3.4102564 3.41025641-3.4102564 1.8834359 0 3.41025641 1.5258462 3.41025641 3.4102564z" stroke="#6d6daa" stroke-linecap="round" stroke-linejoin="round" stroke-width="2"/></g></g></g></svg>