<svg width="32" height="32" fill="none" xmlns="http://www.w3.org/2000/svg"><circle cx="16" cy="16" r="16" fill="#fff"/><path d="M24.377 11.898a17.348 17.348 0 00-.837-.264c.047-.19.09-.38.13-.57.633-3.076.219-5.554-1.196-6.37-1.356-.782-3.574.034-5.815 1.983-.22.193-.436.391-.647.594a16.001 16.001 0 00-.43-.397C13.232 4.789 10.88 3.91 9.466 4.728c-1.355.785-1.757 3.114-1.186 6.029.056.288.12.575.192.86-.333.095-.655.196-.962.303C4.758 12.88 3 14.384 3 15.944c0 1.612 1.887 3.228 4.754 4.208.233.079.467.152.703.22-.076.307-.144.617-.204.928-.544 2.864-.119 5.138 1.232 5.917 1.396.805 3.74-.022 6.02-2.016.18-.158.362-.325.543-.5.228.22.463.434.703.641 2.21 1.902 4.392 2.67 5.742 1.888 1.395-.808 1.848-3.25 1.26-6.223a14.739 14.739 0 00-.156-.695c.164-.048.326-.099.483-.15 2.98-.988 4.92-2.585 4.92-4.218 0-1.565-1.815-3.08-4.623-4.046z" fill="#53C1DE"/><path d="M23.73 19.107c-.142.047-.287.092-.436.137a26.074 26.074 0 00-1.317-3.294c.519-1.117.946-2.211 1.266-3.246.266.077.524.158.773.244 2.406.828 3.873 2.053 3.873 2.996 0 1.005-1.585 2.31-4.158 3.163zm-1.067 2.116c.26 1.314.297 2.502.125 3.431-.155.835-.466 1.392-.852 1.614-.819.475-2.571-.142-4.46-1.768a15.975 15.975 0 01-.655-.596 26.098 26.098 0 002.18-2.767 25.925 25.925 0 003.521-.543c.053.214.1.424.14.629zm-10.8 4.963c-.8.283-1.437.291-1.823.07-.82-.474-1.16-2.3-.696-4.75.056-.289.119-.576.19-.862 1.065.235 2.244.405 3.504.507a27.027 27.027 0 002.232 2.757c-.162.156-.327.308-.496.456-1.008.882-2.02 1.508-2.91 1.822zm-3.75-7.085c-1.267-.434-2.314-.997-3.032-1.611-.645-.552-.97-1.1-.97-1.546 0-.946 1.411-2.154 3.765-2.975.296-.102.594-.196.895-.281a26.642 26.642 0 001.267 3.283 27.046 27.046 0 00-1.283 3.33c-.215-.061-.43-.128-.641-.2zm1.258-8.558c-.489-2.497-.164-4.38.652-4.853.87-.504 2.793.214 4.82 2.014.13.115.26.236.39.36a26.611 26.611 0 00-2.214 2.741 27.154 27.154 0 00-3.47.54 16.283 16.283 0 01-.178-.802zm11.215 2.77a35.39 35.39 0 00-.79-1.3c.829.104 1.624.243 2.37.414a23.675 23.675 0 01-.832 2.239c-.24-.456-.49-.908-.748-1.353zm-4.574-4.455a23.734 23.734 0 011.53 1.847 32.737 32.737 0 00-3.073 0 24.494 24.494 0 011.543-1.847zM11.41 13.32c-.255.443-.5.89-.733 1.345-.324-.767-.6-1.522-.827-2.25a25.078 25.078 0 012.357-.405c-.275.43-.541.867-.796 1.31zm.821 6.637a23.647 23.647 0 01-2.396-.385c.23-.741.513-1.511.843-2.295a32.704 32.704 0 001.553 2.68zm3.813 3.152a24.963 24.963 0 01-1.564-1.872c.498.02 1.005.03 1.52.03.53 0 1.055-.012 1.57-.035a23.615 23.615 0 01-1.526 1.877zm5.301-5.872c.348.792.64 1.558.873 2.287-.753.172-1.567.31-2.425.414.275-.436.541-.877.798-1.323.262-.454.513-.913.754-1.378zm-1.716.823a36.35 36.35 0 01-1.247 2.012 33.49 33.49 0 01-2.381.084c-.81 0-1.596-.025-2.354-.075a31.46 31.46 0 01-2.38-4.11 31.181 31.181 0 012.367-4.103 31.5 31.5 0 014.739 0c.44.653.859 1.32 1.253 2.001.396.683.77 1.379 1.12 2.086-.347.715-.72 1.417-1.117 2.105zM21.92 5.657c.871.502 1.21 2.527.663 5.182-.036.173-.075.345-.117.517a26.611 26.611 0 00-3.477-.55 26.102 26.102 0 00-2.197-2.742c.194-.188.394-.371.598-.549 1.919-1.67 3.713-2.33 4.53-1.858z" fill="#fff"/><path d="M16 13.623a2.322 2.322 0 110 4.643 2.322 2.322 0 010-4.643" fill="#53C1DE"/></svg>
