<svg width="32" height="32" viewBox="0 0 32 32" fill="none" xmlns="http://www.w3.org/2000/svg">
<circle cx="16" cy="16" r="16" fill="white"/>
<path d="M16.1755 3.01819C16.125 3.02047 15.9346 3.03637 15.7511 3.05001C13.4572 3.21818 11.1313 4.05901 9.22508 5.40889C8.59427 5.85431 8.0965 6.27245 7.54139 6.82241C4.35063 9.98577 3.03625 14.5126 4.03408 18.91C4.44239 20.7144 5.31405 22.5301 6.47016 23.9891C8.2846 26.2821 10.7711 27.8978 13.5605 28.5978C14.6959 28.8841 15.6387 29 16.8292 29C18.0037 29 18.8685 28.8955 19.9879 28.625C21.5958 28.2342 23.0089 27.591 24.4219 26.6116C25.7753 25.6708 27.0346 24.3527 27.9384 22.9324C29.1036 21.0962 29.7666 19.0691 29.9294 16.8443C29.9638 16.3761 29.9432 15.2171 29.8927 14.7399C29.7918 13.7922 29.5349 12.5424 29.3858 12.281C29.3261 12.1788 29.1587 12.0469 29.0348 12.0038C28.9912 11.9901 28.8949 11.9788 28.8169 11.9788C28.4728 11.9788 28.1838 12.2628 28.1838 12.5969C28.1838 12.6764 28.2205 12.8673 28.2733 13.0741C28.7275 14.824 28.7642 16.7465 28.3765 18.5009C27.881 20.7485 26.7754 22.7301 25.1077 24.355C24.3301 25.1117 23.58 25.6708 22.6097 26.2207C20.3457 27.5047 17.5311 27.991 14.8909 27.5547C12.8861 27.2252 11.145 26.4616 9.49116 25.1867C8.71355 24.5868 7.76618 23.5982 7.17896 22.771C6.16507 21.3439 5.52738 19.8394 5.19706 18.0919C5.02961 17.201 4.97227 16.0193 5.05026 15.058C5.16954 13.5991 5.53885 12.2447 6.16507 10.9607C6.4541 10.363 6.63302 10.0517 6.97939 9.53581C7.6859 8.47681 8.62179 7.48598 9.65632 6.69969C10.8698 5.77477 12.3103 5.07256 13.7669 4.69532C14.5537 4.49079 15.1822 4.38853 15.9805 4.33172C18.8685 4.12719 21.6761 4.94984 23.9631 6.67469C24.1329 6.80195 24.3118 6.94058 24.3599 6.98376L24.4471 7.05875L24.4127 7.1542C24.2361 7.64506 24.3668 8.25637 24.7384 8.68361C24.9288 8.90177 25.2729 9.1063 25.5642 9.17447C25.7638 9.2222 26.1102 9.2222 26.312 9.17447C26.8235 9.05403 27.3007 8.61998 27.4521 8.1382C27.6218 7.59961 27.5232 7.06784 27.1745 6.63606C26.7891 6.15883 26.1262 5.94521 25.5138 6.10429L25.3807 6.13838L25.1926 5.98384C24.4288 5.34981 23.5043 4.7635 22.5317 4.29763C20.9536 3.54088 19.3685 3.13409 17.5632 3.02501C17.2169 3.00456 16.398 3.00001 16.1755 3.01819V3.01819Z" fill="black"/>
<path d="M14.8175 10.4948C14.5743 11.1175 14.0468 12.481 13.6407 13.5241C13.2347 14.5672 12.4021 16.7102 11.7896 18.285C11.1794 19.8599 10.6725 21.1552 10.6679 21.1643C10.661 21.1757 11.3056 21.1825 12.097 21.1825H13.5398L13.6247 20.9484C13.6729 20.8212 13.8426 20.3712 14.0009 19.9485L14.2899 19.1827H16.4553C18.1803 19.1827 18.6207 19.1759 18.6138 19.1531C18.5909 19.0918 18.2376 18.0919 18.0495 17.5578L17.8477 16.9897L16.414 16.9783L14.9826 16.967L15.914 14.424C16.4737 12.8969 16.8521 11.897 16.859 11.9197C16.8682 11.9401 17.2398 12.9878 17.6871 14.2467C18.1344 15.5057 18.873 17.5783 19.3272 18.8532L20.1507 21.1711L21.5867 21.178C22.3758 21.1802 23.0226 21.178 23.0226 21.1734C23.0226 21.1689 22.8368 20.6848 22.6074 20.1008C22.378 19.5145 21.8872 18.2532 21.5156 17.2965C21.1439 16.3397 20.7265 15.2671 20.5865 14.9103C20.4489 14.5535 20.2081 13.9354 20.0521 13.5354C19.8961 13.1355 19.4901 12.0878 19.146 11.2061C18.8019 10.3244 18.5014 9.54943 18.4762 9.48353L18.4326 9.36536H15.2556L14.8175 10.4948Z" fill="black"/>
</svg>
