<svg width="32" height="32" fill="none" xmlns="http://www.w3.org/2000/svg"><circle cx="16" cy="16" r="16" fill="#fff"/><path d="M24.697 7.175c-2.228-3.19-6.63-4.135-9.812-2.107L9.295 8.63A6.412 6.412 0 006.4 12.925a6.753 6.753 0 00.666 4.335 6.43 6.43 0 00-.96 2.397 6.833 6.833 0 001.168 5.168c2.229 3.19 6.63 4.134 9.812 2.107l5.59-3.562a6.41 6.41 0 002.896-4.295 6.756 6.756 0 00-.665-4.336c.478-.725.804-1.54.959-2.396a6.829 6.829 0 00-1.168-5.168" fill="#FF3E00"/><path d="M14.339 25.125a4.44 4.44 0 01-4.765-1.767 4.108 4.108 0 01-.703-3.107c.033-.177.078-.352.134-.522l.105-.321.287.21c.661.486 1.4.855 2.186 1.093l.208.063-.02.207c-.025.295.055.59.226.83a1.337 1.337 0 001.435.533c.121-.032.237-.083.343-.15l5.59-3.562a1.164 1.164 0 00.525-.778 1.244 1.244 0 00-.212-.937 1.338 1.338 0 00-1.435-.533 1.23 1.23 0 00-.343.15l-2.133 1.36c-.35.224-.733.392-1.135.499a4.44 4.44 0 01-4.765-1.766 4.108 4.108 0 01-.702-3.108 3.855 3.855 0 011.742-2.582l5.589-3.563a4.07 4.07 0 011.136-.499 4.44 4.44 0 014.764 1.767 4.108 4.108 0 01.703 3.107 3.942 3.942 0 01-.134.522l-.105.321-.286-.21a7.206 7.206 0 00-2.187-1.093l-.208-.063.02-.207a1.256 1.256 0 00-.226-.831 1.337 1.337 0 00-1.435-.532 1.23 1.23 0 00-.343.15l-5.59 3.562a1.16 1.16 0 00-.524.778 1.24 1.24 0 00.211.937 1.338 1.338 0 001.435.533c.122-.033.238-.084.344-.151l2.132-1.36c.35-.223.734-.39 1.135-.498a4.44 4.44 0 014.765 1.766 4.11 4.11 0 01.702 3.108 3.857 3.857 0 01-1.742 2.583l-5.589 3.562c-.35.223-.733.391-1.135.499" fill="#fff"/></svg>