<svg viewBox="0 0 12 12" xmlns="http://www.w3.org/2000/svg"><path d="M7.573 6l3.718 3.709a1.1 1.1 0 01.334.791c0 .299-.111.56-.334.782a1.087 1.087 0 01-.791.343 1.1 1.1 0 01-.791-.334L6 7.573l-3.709 3.718a1.1 1.1 0 01-.791.334c-.299 0-.56-.114-.782-.343a1.058 1.058 0 01-.343-.782 1.1 1.1 0 01.334-.791L4.427 6 .709 2.291A1.1 1.1 0 01.375 1.5c0-.299.114-.562.343-.791C.94.486 1.2.375 1.5.375a1.1 1.1 0 01.791.334L6 4.427 9.709.709a1.1 1.1 0 011.582 0 1.1 1.1 0 010 1.582L7.573 6z" fill="#666" fill-rule="evenodd"/></svg>