<svg xmlns="http://www.w3.org/2000/svg" viewBox="0 0 16 14"><path fill="#0094FF" fill-rule="evenodd" d="M16 4.978l-3.338 6.163H10.16V14l-3.193-1.66L3.773 14v-2.86H2.54C.853 11.14 0 10.245 0 8.453 0 7.92.063 7.334.308 6.86 1.596 4.356 2.612 2.763 3.62 1.533 4.454.52 5.161 0 6.739 0h9.134l-4.127 6.874H2.54c-.436 0-1.089 0-1.089 1.563 0 1.519.626 1.519 1.089 1.519h1.233v-1.66h1.451v3.541l1.742-.904 1.741.904v-3.54h1.452v1.659h1.55l2.704-4.978H16zm-11.175-2.8c-.707.866-1.505 2.089-2.313 3.51h8.327l2.703-4.503H6.739c-.961 0-1.251.193-1.914.993z"/></svg>