<svg viewBox="0 0 16 14" xmlns="http://www.w3.org/2000/svg"><path d="M15.99 4.058c.07 1.062-.22 2.663-1.99 4.319-3.01 2.798-5.4 5.056-5.42 5.074L8 14l-.58-.549C7.4 13.433 5.01 11.175 2 8.377.23 6.72-.06 5.12.01 4.057c.08-1.24.7-2.401 1.66-3.103C2.5.35 3.59 0 4.68 0 6.33 0 7.38.639 8 1.413 8.62.639 9.67 0 11.32 0c1.09 0 2.18.35 3.01.954.96.702 1.58 1.862 1.66 3.104zm-3.14 3.32c1.37-1.278 1.6-2.465 1.54-3.24-.06-.989-.59-1.718-1.07-2.06-.54-.404-1.29-.638-2-.638-2.29 0-2.48 1.817-2.52 2.024-.05.234-.23.567-.77.567-.56 0-.79-.306-.83-.576-.03-.189-.23-2.015-2.52-2.015-.71 0-1.46.234-2 .638-.48.342-1.01 1.071-1.07 2.06-.06.775.17 1.962 1.54 3.24C5.28 9.366 7.11 11.076 8 11.913c.89-.837 2.72-2.547 4.85-4.535z" fill="#0094FF" fill-rule="evenodd"/></svg>