<svg viewBox="0 0 12 14" xmlns="http://www.w3.org/2000/svg"><g fill="#0094FF"><path d="M6.844 9.656H5.437v-3.21L3.856 4.864l.994-.993 1.29 1.292 1.292-1.292.993.993-1.582 1.582zm-3.938 2.15V10.4h6.469v1.406zm1.407 2.1V12.5h3.656v1.406z"/><path d="M10.184 1.538c.835.923 1.265 2.25 1.142 3.56-.15 1.582-.685 2.381-1.318 3.19l-.088.114c-.308.387-.545.686-.545 1.336H7.969c0-1.142.492-1.758.852-2.215l.08-.096c.527-.677.913-1.248 1.019-2.461.035-.352.079-1.547-.774-2.479-.659-.72-1.66-1.08-3.005-1.08-1.336 0-2.347.36-2.997 1.08-.853.94-.818 2.127-.783 2.479.115 1.213.493 1.784 1.02 2.46l.088.124c.36.448.844 1.063.844 2.188H2.905c0-.633-.228-.931-.527-1.31l-.106-.14C1.641 7.48 1.104 6.68.955 5.098c-.123-1.31.308-2.637 1.143-3.56C2.739.835 3.96 0 6.14 0s3.401.835 4.043 1.538z"/></g></svg>