<svg viewBox="0 0 16 16" xmlns="http://www.w3.org/2000/svg"><path d="M13.781 6.774q.109.43.164.863T14 8.5q0 .742-.246 1.394t-.668 1.144q-.43.492-1.019.875t-1.269.625q-.336.117-.699.207t-.746.152l-.102-2.148 2.398-2q.086-.086.102-.176t-.047-.176q-.086-.125-.187-.152t-.219.051L9.15 9.452l-.148-3.953q0-.187-.156-.344t-.344-.156-.344.156-.156.344v9.5q0 .414-.293.707t-.707.293-.707-.293-.293-.707v-2.25q-.844-.187-1.559-.555t-1.262-.891q-.555-.523-.867-1.246t-.312-1.559q0-.867.223-1.726t.574-1.562q.344-.703.848-1.398t.973-1.203T5.659 1.59t.953-.809q.187-.141.387-.289t.402-.289Q7.667 0 8.003 0t.602.203q.414.289.793.582t.949.801q.57.516 1.039 1.023t.977 1.203q.5.695.848 1.398t.574 1.562z"/></svg>