<svg xmlns="http://www.w3.org/2000/svg" viewBox="0 0 16 14"><path fill="#0094FF" fill-rule="evenodd" d="M12.462 0C14.413 0 16 1.504 16 3.354v3.792c0 1.85-1.587 3.354-3.538 3.354H9.317l-3.702 3.3a.852.852 0 01-.538.2.821.821 0 01-.298-.055.735.735 0 01-.471-.674V10.5h-.77C1.587 10.5 0 8.996 0 7.146V3.354C0 1.504 1.587 0 3.538 0h8.924zm2 7.146V3.354c0-1.048-.895-1.896-2-1.896H3.538c-1.105 0-2 .848-2 1.896v3.792c0 1.048.895 1.896 2 1.896h2.308v2.606l2.856-2.606h3.76c1.105 0 2-.848 2-1.896z"/></svg>